<svg width="14" height="14" viewBox="0 0 14 14" fill="none" xmlns="http://www.w3.org/2000/svg">
<path d="M11.2887 8.92922C11.0229 8.74385 10.7122 8.64611 10.3901 8.64611C9.87776 8.64611 9.39688 8.89735 9.10397 9.31772L8.63212 9.99393C8.51555 9.91575 8.39699 9.833 8.27686 9.74604L8.26308 9.73643L8.26326 9.73618C7.57232 9.23465 6.83023 8.59436 6.1177 7.88197C5.40532 7.16958 4.76515 6.42753 4.26375 5.7366L4.26363 5.73669L4.25884 5.72984C4.17008 5.60736 4.08569 5.4865 4.00604 5.3677L4.68195 4.89586C5.02648 4.65595 5.25659 4.29655 5.32966 3.88415M11.2887 8.92922L11.031 9.2981M11.2887 8.92922L13.3213 10.3493M11.2887 8.92922L11.0313 9.29832M11.031 9.2981C10.8405 9.16532 10.6197 9.09611 10.3901 9.09611C10.0251 9.09611 9.68202 9.27526 9.47318 9.57499L9.47301 9.57523L9.00116 10.2514L8.74836 10.6137L8.38147 10.3677C7.56145 9.8177 6.65668 9.05718 5.79954 8.20019L5.79951 8.20016C4.94247 7.34313 4.18209 6.43834 3.63228 5.6183L3.38635 5.2515L3.74846 4.99872L4.42436 4.52687L4.4248 4.52656C4.67141 4.35485 4.83438 4.09998 4.88654 3.80574M11.031 9.2981L11.0313 9.29832M11.031 9.2981L4.70126 2.96825M4.88654 3.80574L5.32966 3.88415M4.88654 3.80574C4.88655 3.8057 4.88656 3.80567 4.88656 3.80563L5.32966 3.88415M4.88654 3.80574C4.93863 3.51141 4.87366 3.21575 4.7014 2.96845L4.70154 2.96866L5.07045 2.71097M5.32966 3.88415C5.40258 3.47205 5.31066 3.05566 5.07045 2.71097M5.07045 2.71097L4.70126 2.96825M5.07045 2.71097L3.65063 0.678355M4.70126 2.96825L3.28182 0.936198M4.70126 2.96825L3.28182 0.936198M3.65063 0.678355C3.35373 0.253694 2.87469 0 2.36898 0C2.19373 0 2.02184 0.0309457 1.85823 0.0913052C1.6724 0.159937 1.49929 0.244195 1.32954 0.35082M3.65063 0.678355L3.28182 0.936198M3.65063 0.678355L3.28172 0.936047C3.06645 0.628253 2.7233 0.45 2.36898 0.45C2.24723 0.45 2.12811 0.471405 2.01413 0.513435L3.28182 0.936198M1.32954 0.35082L1.04889 0.548444M1.32954 0.35082L1.56891 0.731878C1.57211 0.729863 1.57532 0.727858 1.57853 0.725863M1.32954 0.35082L1.58863 0.718756L1.57853 0.725863M1.04889 0.548444C0.978724 0.602982 0.913462 0.662729 0.850958 0.725233C0.508563 1.06747 0.265593 1.50071 0.128482 2.013M1.04889 0.548444L1.30797 0.91638L1.31734 0.909782M1.04889 0.548444L1.32505 0.903736C1.32248 0.905735 1.31991 0.907751 1.31734 0.909782M0.128482 2.013C-0.456576 4.20617 0.992818 7.52257 3.73504 10.2648C6.03789 12.5676 8.80447 13.9982 10.9549 13.9985M0.128482 2.013L0.563182 2.12935C0.563193 2.12931 0.563203 2.12927 0.563214 2.12923M0.128482 2.013L0.563277 2.12899C0.563256 2.12907 0.563235 2.12915 0.563214 2.12923M10.9549 13.9985H10.955C11.3233 13.9985 11.6705 13.9556 11.987 13.871M10.9549 13.9985L10.955 13.5485H10.955C11.2888 13.5485 11.5965 13.5096 11.8708 13.4363L11.987 13.871M10.9549 13.9985V13.5485C8.97301 13.5482 6.31439 12.2077 4.05324 9.94659C2.71615 8.60951 1.70286 7.14045 1.09637 5.75278C0.485949 4.35612 0.307213 3.0892 0.563214 2.12923M11.987 13.871C12.4993 13.7341 12.9325 13.4911 13.2751 13.1486C13.3372 13.0864 13.3967 13.0211 13.4604 12.9387M11.987 13.871L11.8708 13.4363M13.4604 12.9387L13.6582 12.6565M13.4604 12.9387L13.1044 12.6634C13.1024 12.6661 13.1003 12.6687 13.0983 12.6713M13.4604 12.9387L13.0919 12.6804L13.0983 12.6713M13.6582 12.6565C13.7549 12.5021 13.839 12.329 13.9085 12.1418M13.6582 12.6565L13.2897 12.3982L13.2826 12.4083M13.6582 12.6565L13.2768 12.4177C13.2787 12.4146 13.2807 12.4115 13.2826 12.4083M13.9085 12.1418C14.1477 11.4953 13.9062 10.7581 13.3213 10.3493M13.9085 12.1418L13.4867 11.985C13.4867 11.9851 13.4867 11.9851 13.4867 11.9851M13.9085 12.1418L13.4865 11.9856C13.4865 11.9855 13.4866 11.9853 13.4867 11.9851M13.3213 10.3493L13.0636 10.7182M13.3213 10.3493L13.0636 10.7182L13.0636 10.7182M11.0313 9.29832L13.0636 10.7182M11.0313 9.29832L13.0636 10.7182M13.0636 10.7182C13.4888 11.0154 13.651 11.5401 13.4867 11.9851M13.0636 10.7182L11.8708 13.4363M13.4867 11.9851C13.4282 12.1425 13.3592 12.2845 13.2826 12.4083M13.2826 12.4083L13.0983 12.6713M13.0983 12.6713C13.0505 12.7325 13.0058 12.7814 12.9569 12.8304C12.6755 13.1118 12.3141 13.3178 11.8708 13.4363M11.8708 13.4363L2.01398 0.513492C1.85987 0.570418 1.71788 0.639227 1.57853 0.725863M0.563214 2.12923C0.681914 1.6858 0.887934 1.32453 1.16908 1.0435L1.16916 1.04343C1.21988 0.992704 1.26852 0.948356 1.31734 0.909782M1.31734 0.909782L1.57853 0.725863" stroke="black" stroke-width="0.9"/>
</svg>
