<svg width="14" height="14" viewBox="0 0 14 14" fill="none" xmlns="http://www.w3.org/2000/svg">
<path d="M1.61539 12.2206H12.3846C13.2752 12.2206 14 11.4958 14 10.6052V3.06676C14 2.17614 13.2752 1.45137 12.3846 1.45137H10.7692V0.912912C10.7692 0.615143 10.5285 0.374451 10.2308 0.374451C9.933 0.374451 9.69231 0.615143 9.69231 0.912912V1.45137H4.30769V0.912912C4.30769 0.615143 4.067 0.374451 3.76923 0.374451C3.47146 0.374451 3.23077 0.615143 3.23077 0.912912V1.45137H1.61539C0.72477 1.45137 0 2.17614 0 3.06676V10.6052C0 11.4958 0.72477 12.2206 1.61539 12.2206ZM1.61539 2.5283H3.23077V3.06676C3.23077 3.36453 3.47146 3.60522 3.76923 3.60522C4.067 3.60522 4.30769 3.36453 4.30769 3.06676V2.5283H9.69231V3.06676C9.69231 3.36453 9.933 3.60522 10.2308 3.60522C10.5285 3.60522 10.7692 3.36453 10.7692 3.06676V2.5283H12.3846C12.6819 2.5283 12.9231 2.76953 12.9231 3.06676V10.6052C12.9231 10.9025 12.6819 11.1437 12.3846 11.1437H1.61539C1.31815 11.1437 1.07692 10.9025 1.07692 10.6052V3.06676C1.07692 2.76953 1.31815 2.5283 1.61539 2.5283Z" fill="black"/>
<path d="M2.15394 5.75911H11.8463C12.144 5.75911 12.3847 5.51842 12.3847 5.22065C12.3847 4.92288 12.144 4.68219 11.8463 4.68219H2.15394C1.85617 4.68219 1.61548 4.92288 1.61548 5.22065C1.61548 5.51842 1.85617 5.75911 2.15394 5.75911Z" fill="black"/>
</svg>
