<svg width="14" height="14" viewBox="0 0 14 14" fill="none" xmlns="http://www.w3.org/2000/svg">
<path d="M11.725 1.61816H2.275C1.02058 1.61816 0 2.63874 0 3.89316V10.1068C0 11.3613 1.02058 12.3819 2.275 12.3819H11.725C12.9794 12.3819 14 11.3613 14 10.1068V3.89316C14 2.63872 12.9794 1.61816 11.725 1.61816ZM11.725 2.49316C11.9646 2.49316 12.1902 2.55373 12.3876 2.66023L6.99754 6.46618L1.55096 2.69534C1.76236 2.5671 2.0102 2.49316 2.275 2.49316H11.725ZM13.125 10.1068C13.125 10.8788 12.497 11.5069 11.725 11.5069H2.275C1.50303 11.5069 0.875 10.8788 0.875 10.1068V3.89316C0.875 3.70586 0.912242 3.5272 0.979262 3.36376L6.75098 7.35972C6.82593 7.41159 6.91296 7.43754 7 7.43754C7.08838 7.43754 7.17675 7.4108 7.25236 7.35743L12.9941 3.30309C13.0779 3.48254 13.125 3.68243 13.125 3.89319V10.1068Z" fill="black"/>
</svg>
