<svg width="14" height="14" viewBox="0 0 14 14" fill="none" xmlns="http://www.w3.org/2000/svg">
<path d="M13.8231 6.64859C12.933 5.98848 12.072 5.35331 11.3223 4.83788C11.1232 4.70105 10.8509 4.75142 10.714 4.95054C10.5771 5.14963 10.6275 5.42203 10.8266 5.55891C11.4313 5.97464 12.1142 6.47298 12.8273 6.99995C10.0454 9.05505 8.4592 10.1262 6.99333 10.1262C6.99133 10.1262 6.98934 10.1262 6.98734 10.1262C6.37678 10.125 5.75788 9.946 5.03513 9.58353L6.02487 8.59382C6.30894 8.76827 6.64289 8.86906 7 8.86906C8.03061 8.86906 8.86908 8.03059 8.86908 6.99998C8.86908 6.64284 8.76827 6.30895 8.59384 6.02485L11.094 3.52467C11.2649 3.35383 11.2649 3.07681 11.094 2.90596C10.9232 2.73512 10.6462 2.73512 10.4753 2.90596L9.60848 3.77279C8.82528 3.36846 8.07406 3.14375 7.31678 3.08698C6.58664 3.03232 5.86873 3.13584 5.12187 3.40365C3.76975 3.88848 2.53807 4.83832 1.23405 5.84391C0.890832 6.10857 0.535965 6.38226 0.176859 6.64856C0.0655977 6.73114 0 6.86148 0 7.00001C0 7.13853 0.0655976 7.26888 0.176887 7.35143C1.56371 8.37994 2.66361 9.18521 3.60653 9.77477L2.90593 10.4754C2.73506 10.6462 2.73506 10.9232 2.90593 11.0941C2.99135 11.1795 3.10332 11.2222 3.21527 11.2222C3.32721 11.2222 3.43919 11.1795 3.52461 11.0941L4.38711 10.2316C5.34105 10.7461 6.1489 10.9996 6.98556 11.0012H6.99349C8.81672 11.0012 10.5906 9.74871 13.8231 7.35143C13.9344 7.26888 14 7.13856 14 7.00001C14 6.86146 13.9344 6.73114 13.8231 6.64859V6.64859ZM6.00589 7.00001C6.00589 6.45185 6.45187 6.00593 7 6.00593C7.11257 6.00593 7.22069 6.02498 7.32167 6.05966L6.05959 7.32171C6.02495 7.22073 6.00589 7.11258 6.00589 7.00001ZM7.99408 7.00001C7.99408 7.54817 7.54813 7.99409 7 7.99409C6.88743 7.99409 6.77931 7.97503 6.67833 7.94036L7.94038 6.67834C7.97502 6.77932 7.99408 6.88743 7.99408 7.00001V7.00001ZM1.16886 6.99719C1.37197 6.84254 1.57207 6.68823 1.76837 6.53683C4.21848 4.64741 6.17624 3.13825 8.95448 4.4268L7.97513 5.40614C7.69103 5.23169 7.35711 5.1309 7 5.1309C5.96936 5.1309 5.13089 5.96937 5.13089 6.99998C5.13089 7.35712 5.23171 7.69104 5.40616 7.97511L4.24145 9.13985C3.40178 8.62909 2.41361 7.91714 1.16886 6.99719V6.99719Z" fill="black"/>
</svg>
