<svg width="14" height="14" viewBox="0 0 14 14" fill="none" xmlns="http://www.w3.org/2000/svg">
<path d="M0.725281 12.7927C0.903125 11.2352 1.64917 9.79453 2.82594 8.73606C4.01213 7.6691 5.53912 7.08152 7.12557 7.08152C8.71203 7.08152 10.239 7.6691 11.4252 8.73606C12.602 9.79451 13.348 11.2352 13.5259 12.7927C13.5619 13.1084 13.4691 13.4005 13.2576 13.6376C13.046 13.8747 12.7663 14 12.4485 14H1.80262C1.48484 14 1.20505 13.8747 0.99355 13.6376C0.782046 13.4005 0.68927 13.1084 0.725281 12.7927ZM1.64649 13.0551C1.69082 13.1048 1.73604 13.125 1.80265 13.125H12.4485C12.5151 13.125 12.5603 13.1048 12.6047 13.0551C12.6491 13.0053 12.664 12.9581 12.6565 12.8919C12.3352 10.0783 9.95743 7.95649 7.1256 7.95649C4.29375 7.95649 1.91596 10.0783 1.59465 12.8919C1.58707 12.9581 1.60209 13.0054 1.64649 13.0551ZM7.12557 6.52611C5.32633 6.52611 3.86251 5.06232 3.86251 3.26307C3.86251 1.46382 5.32633 3.05176e-05 7.12557 3.05176e-05C8.92482 3.05176e-05 10.3886 1.46382 10.3886 3.26307C10.3886 5.06232 8.92482 6.52611 7.12557 6.52611ZM7.12557 0.875031C5.80878 0.875031 4.73751 1.9463 4.73751 3.26307C4.73751 4.57984 5.80881 5.65111 7.12557 5.65111C8.44234 5.65111 9.51361 4.57984 9.51361 3.26307C9.51361 1.9463 8.44237 0.875031 7.12557 0.875031Z" fill="black"/>
</svg>
