<svg width="14" height="14" viewBox="0 0 14 14" fill="none" xmlns="http://www.w3.org/2000/svg">
<path d="M13.0636 10.7182L11.0313 9.29832C10.8407 9.1654 10.6198 9.09611 10.3901 9.09611C10.0251 9.09611 9.68202 9.27526 9.47318 9.57499L9.47301 9.57523L9.00116 10.2514L8.74836 10.6137L8.38147 10.3677C7.56145 9.8177 6.65668 9.05718 5.79954 8.20019L5.79951 8.20016C4.94247 7.34313 4.18209 6.43834 3.63228 5.6183L3.38635 5.2515L3.74846 4.99872L4.42436 4.52687L4.4248 4.52656C4.67142 4.35485 4.83438 4.09998 4.88654 3.80574C4.93862 3.51144 4.87367 3.21581 4.70146 2.96854C4.70139 2.96844 4.70132 2.96835 4.70126 2.96825L3.28182 0.936198C3.28179 0.936148 3.28175 0.936097 3.28172 0.936047C3.06645 0.628253 2.7233 0.45 2.36898 0.45C2.24723 0.45 2.12811 0.471405 2.01413 0.513435L13.0636 10.7182ZM13.0636 10.7182C13.4889 11.0154 13.651 11.5402 13.4866 11.9853C13.4281 12.1426 13.3591 12.2845 13.2826 12.4083L13.0983 12.6713C13.0505 12.7325 13.0058 12.7814 12.9569 12.8304C12.6755 13.1118 12.3141 13.3178 11.8708 13.4363C11.5965 13.5096 11.2889 13.5485 10.955 13.5485H10.955C10.9549 13.5485 10.9549 13.5485 10.9549 13.5485C8.97301 13.5482 6.31439 12.2077 4.05324 9.94659C2.71615 8.60951 1.70286 7.14045 1.09637 5.75278C0.485935 4.35609 0.307205 3.08915 0.563231 2.12917C0.681934 1.68577 0.887947 1.32451 1.16908 1.0435L1.16916 1.04343C1.21988 0.992704 1.26852 0.948355 1.31734 0.909782L1.57853 0.725864C1.71788 0.639227 1.85987 0.570418 2.01398 0.513492L13.0636 10.7182Z" stroke="black" stroke-width="0.9"/>
</svg>
