<svg width="269" height="40" viewBox="0 0 269 40" fill="none" xmlns="http://www.w3.org/2000/svg">
<mask id="path-1-inside-1_286_320" fill="white">
<path fill-rule="evenodd" clip-rule="evenodd" d="M39.9999 34.3582C40.0121 37.1586 37.9732 39.4892 35.2944 39.9264C35.2046 39.9743 35.1037 40 35.0001 40L34.8161 39.9835C34.681 39.9939 34.5446 39.9994 34.407 40H10.5328C4.71576 40 0 35.2842 0 29.4672C0 23.7283 4.5901 19.0612 10.2993 18.937L10.5876 13.75H10.0001C9.59239 13.75 9.19579 13.617 8.87041 13.3713C8.54504 13.1256 8.30862 12.7805 8.19698 12.3884C8.08535 11.9962 8.10458 11.5784 8.25176 11.1982C8.39894 10.8179 8.66605 10.496 9.01261 10.2812L6.97511 7.21875C6.90897 7.11637 6.87421 6.99688 6.87511 6.875V0.625C6.87511 0.45924 6.94096 0.300269 7.05817 0.183058C7.17538 0.065848 7.33435 0 7.50011 0H10.6251C10.7909 0 10.9498 0.065848 11.0671 0.183058C11.1843 0.300269 11.2501 0.45924 11.2501 0.625V2.5H13.7501V0.625C13.7501 0.45924 13.816 0.300269 13.9332 0.183058C14.0504 0.065848 14.2094 0 14.3751 0H18.1251C18.2909 0 18.4498 0.065848 18.5671 0.183058C18.6843 0.300269 18.7501 0.45924 18.7501 0.625V2.5H21.2501V0.625C21.2501 0.45924 21.316 0.300269 21.4332 0.183058C21.5504 0.065848 21.7094 0 21.8751 0H25.6251C25.7909 0 25.9498 0.065848 26.0671 0.183058C26.1843 0.300269 26.2501 0.45924 26.2501 0.625V2.5H28.7501V0.625C28.7501 0.45924 28.816 0.300269 28.9332 0.183058C29.0504 0.065848 29.2094 0 29.3751 0H32.5001C32.6659 0 32.8248 0.065848 32.9421 0.183058C33.0593 0.300269 33.1251 0.45924 33.1251 0.625V6.875C33.1242 6.99752 33.0872 7.11706 33.0189 7.21875L30.9814 10.2812C31.3275 10.4957 31.5944 10.8171 31.7417 11.1967C31.889 11.5763 31.9087 11.9936 31.7979 12.3854C31.687 12.7772 31.4516 13.1223 31.1273 13.3685C30.803 13.6147 30.4073 13.7486 30.0001 13.75H29.4126L30.1092 25.9575C32.2737 25.9033 34.3483 26.9915 35.5208 28.8816C38.1202 29.4193 39.9884 31.7035 39.9999 34.3582ZM18.4108 21.6201C21.6591 20.3173 25.2535 21.2756 27.4513 23.75H28.7439L28.1876 13.75H11.8751L11.6314 17.5H16.2501C16.4159 17.5 16.5748 17.5658 16.6921 17.6831C16.8093 17.8003 16.8751 17.9592 16.8751 18.125C16.8751 18.2908 16.8093 18.4497 16.6921 18.5669C16.5748 18.6842 16.4159 18.75 16.2501 18.75H11.5626L11.5497 18.9826C13.897 19.2092 16.1092 20.2288 17.8116 21.8894C18.0077 21.7914 18.2077 21.7017 18.4108 21.6201ZM10.0001 1.25V3.125C10.0001 3.29076 10.066 3.44973 10.1832 3.56694C10.3004 3.68415 10.4594 3.75 10.6251 3.75H14.3751C14.5409 3.75 14.6998 3.68415 14.8171 3.56694C14.9343 3.44973 15.0001 3.29076 15.0001 3.125V1.25H17.5001V3.125C17.5001 3.29076 17.566 3.44973 17.6832 3.56694C17.8004 3.68415 17.9594 3.75 18.1251 3.75H21.8751C22.0409 3.75 22.1998 3.68415 22.3171 3.56694C22.4343 3.44973 22.5001 3.29076 22.5001 3.125V1.25H25.0001V3.125C25.0001 3.29076 25.066 3.44973 25.1832 3.56694C25.3004 3.68415 25.4594 3.75 25.6251 3.75H29.3751C29.5409 3.75 29.6998 3.68415 29.8171 3.56694C29.9343 3.44973 30.0001 3.29076 30.0001 3.125V1.25H31.8751V6.25H8.12511V1.25H10.0001ZM31.3314 7.5L29.6626 10H10.3376L8.66886 7.5H31.3314ZM9.37511 11.875C9.37511 11.7092 9.44096 11.5503 9.55817 11.4331C9.67538 11.3158 9.83435 11.25 10.0001 11.25H30.0001C30.1659 11.25 30.3248 11.3158 30.4421 11.4331C30.5593 11.5503 30.6251 11.7092 30.6251 11.875C30.6251 12.0408 30.5593 12.1997 30.4421 12.3169C30.3248 12.4342 30.1659 12.5 30.0001 12.5H10.0001C9.83435 12.5 9.67538 12.4342 9.55817 12.3169C9.44096 12.1997 9.37511 12.0408 9.37511 11.875ZM55.7812 13.7734C54.2969 13.7734 53.0501 14.3594 52.041 15.5312L53.0273 16.4102C53.8737 15.5378 54.7786 15.1016 55.7422 15.1016C56.4844 15.1016 57.0964 15.3392 57.5781 15.8145C58.0664 16.2832 58.3105 16.918 58.3105 17.7188C58.3105 19.444 57.2461 20.3066 55.1172 20.3066H54.6387V21.5664H54.8828C55.7031 21.5664 56.2923 21.599 56.6504 21.6641C57.0085 21.7292 57.3861 21.8854 57.7832 22.1328C58.1803 22.3802 58.4863 22.7057 58.7012 23.1094C58.9225 23.5065 59.0332 23.9753 59.0332 24.5156C59.0332 25.5378 58.7142 26.3125 58.0762 26.8398C57.4382 27.3672 56.6634 27.6309 55.752 27.6309C55.127 27.6309 54.5247 27.4941 53.9453 27.2207C53.3659 26.9408 52.7441 26.3125 52.0801 25.3359L50.9668 25.9902C51.6374 27.0579 52.3503 27.8066 53.1055 28.2363C53.8672 28.6595 54.7624 28.8711 55.791 28.8711C57.2624 28.8711 58.4212 28.474 59.2676 27.6797C60.1139 26.8854 60.5371 25.8372 60.5371 24.5352C60.5371 22.582 59.5898 21.3125 57.6953 20.7266C59.1341 20.0625 59.8535 18.9655 59.8535 17.4355C59.8535 16.3548 59.4694 15.4759 58.7012 14.7988C57.9329 14.1152 56.9596 13.7734 55.7812 13.7734ZM73.7305 28.5V17.875H72.3828V19.8281C71.849 19.0859 71.2272 18.5293 70.5176 18.1582C69.8145 17.7871 69.0267 17.6016 68.1543 17.6016C66.6439 17.6016 65.3516 18.1452 64.2773 19.2324C63.2031 20.3197 62.666 21.6283 62.666 23.1582C62.666 24.7207 63.1966 26.0488 64.2578 27.1426C65.3255 28.2298 66.6113 28.7734 68.1152 28.7734C68.9616 28.7734 69.7396 28.5977 70.4492 28.2461C71.1654 27.8945 71.8099 27.3704 72.3828 26.6738V28.5H73.7305ZM66.1523 19.4863C66.7969 19.1087 67.5 18.9199 68.2617 18.9199C69.4466 18.9199 70.4427 19.3333 71.25 20.1602C72.0638 20.987 72.4707 22.0156 72.4707 23.2461C72.4707 24.0534 72.2884 24.7793 71.9238 25.4238C71.5658 26.0684 71.0514 26.5794 70.3809 26.957C69.7103 27.3346 69.0006 27.5234 68.252 27.5234C67.5098 27.5234 66.8131 27.3346 66.1621 26.957C65.5176 26.5729 65.0033 26.0391 64.6191 25.3555C64.235 24.6719 64.043 23.9557 64.043 23.207C64.043 22.4518 64.2318 21.7357 64.6094 21.0586C64.9935 20.3815 65.5078 19.8574 66.1523 19.4863ZM86.9824 14.8574V13.5488C86.4941 13.6204 85.8919 13.666 85.1758 13.6855C82.8516 13.7441 81.2663 13.8906 80.4199 14.125C79.5736 14.3594 78.8835 14.6816 78.3496 15.0918C77.8158 15.502 77.3405 16.1758 76.9238 17.1133C76.5137 18.0443 76.3086 19.418 76.3086 21.2344C76.3086 23.8385 76.8717 25.7461 77.998 26.957C79.1244 28.168 80.498 28.7734 82.1191 28.7734C83.7012 28.7734 85.0195 28.2266 86.0742 27.1328C87.1289 26.0391 87.6562 24.7337 87.6562 23.2168C87.6562 21.6868 87.1256 20.3685 86.0645 19.2617C85.0098 18.1549 83.6947 17.6016 82.1191 17.6016C81.084 17.6016 80.14 17.8848 79.2871 18.4512C78.4408 19.0176 77.832 19.9095 77.4609 21.127L77.5977 19.6328C77.6758 18.8255 77.8711 18.0964 78.1836 17.4453C78.5026 16.7878 78.8932 16.2995 79.3555 15.9805C79.8177 15.6549 80.3581 15.4368 80.9766 15.3262C81.6016 15.209 82.487 15.1309 83.6328 15.0918C85.2148 15.0462 86.3314 14.9681 86.9824 14.8574ZM85.0391 20.209C85.8594 21.0553 86.2695 22.0677 86.2695 23.2461C86.2695 24.418 85.8724 25.4173 85.0781 26.2441C84.2904 27.0645 83.304 27.4746 82.1191 27.4746C80.9408 27.4746 79.9544 27.0645 79.1602 26.2441C78.3724 25.4173 77.9785 24.418 77.9785 23.2461C77.9785 22.0677 78.3887 21.0553 79.209 20.209C80.0293 19.3626 80.9994 18.9395 82.1191 18.9395C83.2454 18.9395 84.2188 19.3626 85.0391 20.209ZM92.8516 22.084H91.5527V17.875H90.1953V28.5H93.7305C94.974 28.5 95.9017 28.1908 96.5137 27.5723C97.1256 26.9473 97.4316 26.1986 97.4316 25.3262C97.4316 24.6035 97.2201 23.9655 96.7969 23.4121C96.3737 22.8522 95.8691 22.4909 95.2832 22.3281C94.6973 22.1654 93.8867 22.084 92.8516 22.084ZM91.6016 27.3477V23.334H92.7637C93.7272 23.334 94.3978 23.4056 94.7754 23.5488C95.1595 23.6921 95.4492 23.9427 95.6445 24.3008C95.8464 24.6589 95.9473 25.0234 95.9473 25.3945C95.9473 26.6966 95.0228 27.3477 93.1738 27.3477H91.6016ZM100.693 17.875H99.3164V28.5H100.693V17.875ZM109.414 17.875H102.422V19.0566H105.225V28.5H106.602V19.0566H109.414V17.875ZM113.926 22.084H112.627V17.875H111.27V28.5H114.805C116.048 28.5 116.976 28.1908 117.588 27.5723C118.2 26.9473 118.506 26.1986 118.506 25.3262C118.506 24.6035 118.294 23.9655 117.871 23.4121C117.448 22.8522 116.943 22.4909 116.357 22.3281C115.771 22.1654 114.961 22.084 113.926 22.084ZM112.676 27.3477V23.334H113.838C114.801 23.334 115.472 23.4056 115.85 23.5488C116.234 23.6921 116.523 23.9427 116.719 24.3008C116.921 24.6589 117.021 25.0234 117.021 25.3945C117.021 26.6966 116.097 27.3477 114.248 27.3477H112.676ZM121.768 17.875H120.391V28.5H121.768V17.875ZM134.785 25.5801L133.633 24.9746C133.216 25.6712 132.829 26.1758 132.471 26.4883C132.113 26.8008 131.676 27.0514 131.162 27.2402C130.654 27.429 130.13 27.5234 129.59 27.5234C128.47 27.5234 127.529 27.1296 126.768 26.3418C126.006 25.5475 125.612 24.5319 125.586 23.2949H135.137C135.124 21.8431 134.733 20.6322 133.965 19.6621C132.884 18.2884 131.439 17.6016 129.629 17.6016C127.871 17.6016 126.468 18.2721 125.42 19.6133C124.593 20.668 124.18 21.8691 124.18 23.2168C124.18 24.6491 124.668 25.9349 125.645 27.0742C126.621 28.207 127.975 28.7734 129.707 28.7734C130.488 28.7734 131.188 28.6562 131.807 28.4219C132.425 28.181 132.982 27.8327 133.477 27.377C133.971 26.9212 134.408 26.3223 134.785 25.5801ZM132.832 20.3652C133.184 20.8014 133.451 21.3841 133.633 22.1133H125.723C126.003 21.1367 126.416 20.4043 126.963 19.916C127.712 19.2454 128.607 18.9102 129.648 18.9102C130.28 18.9102 130.882 19.0436 131.455 19.3105C132.028 19.5775 132.487 19.929 132.832 20.3652ZM144.932 14.1348H143.467V28.5H144.932V21.8008L151.24 28.5H153.145L145.703 20.5801L152.607 14.1348H150.664L144.932 19.5254V14.1348ZM164.15 19.3789C163.076 18.194 161.722 17.6016 160.088 17.6016C158.447 17.6016 157.09 18.1973 156.016 19.3887C155.039 20.4694 154.551 21.7454 154.551 23.2168C154.551 24.7012 155.065 26 156.094 27.1133C157.129 28.2201 158.46 28.7734 160.088 28.7734C161.709 28.7734 163.034 28.2201 164.062 27.1133C165.098 26 165.615 24.7012 165.615 23.2168C165.615 21.7389 165.127 20.4596 164.15 19.3789ZM157.168 20.1992C157.982 19.3594 158.955 18.9395 160.088 18.9395C161.214 18.9395 162.184 19.3594 162.998 20.1992C163.818 21.0391 164.229 22.0547 164.229 23.2461C164.229 24.0143 164.043 24.7305 163.672 25.3945C163.301 26.0586 162.799 26.5729 162.168 26.9375C161.536 27.2956 160.843 27.4746 160.088 27.4746C159.333 27.4746 158.639 27.2956 158.008 26.9375C157.376 26.5729 156.875 26.0586 156.504 25.3945C156.133 24.7305 155.947 24.0143 155.947 23.2461C155.947 22.0547 156.354 21.0391 157.168 20.1992ZM169.541 17.875H168.184V32.3867H169.541V26.6738C170.114 27.3704 170.755 27.8945 171.465 28.2461C172.174 28.5977 172.952 28.7734 173.799 28.7734C175.303 28.7734 176.585 28.2298 177.646 27.1426C178.714 26.0488 179.248 24.7207 179.248 23.1582C179.248 21.6283 178.711 20.3197 177.637 19.2324C176.562 18.1452 175.27 17.6016 173.76 17.6016C172.894 17.6016 172.109 17.7871 171.406 18.1582C170.703 18.5293 170.081 19.0859 169.541 19.8281V17.875ZM170.654 20.1602C171.468 19.3333 172.467 18.9199 173.652 18.9199C174.414 18.9199 175.117 19.1087 175.762 19.4863C176.406 19.8574 176.917 20.3815 177.295 21.0586C177.679 21.7357 177.871 22.4518 177.871 23.207C177.871 23.9557 177.679 24.6719 177.295 25.3555C176.911 26.0391 176.393 26.5729 175.742 26.957C175.098 27.3346 174.408 27.5234 173.672 27.5234C172.923 27.5234 172.21 27.3346 171.533 26.957C170.863 26.5794 170.345 26.0684 169.98 25.4238C169.622 24.7793 169.443 24.0534 169.443 23.2461C169.443 22.0156 169.847 20.987 170.654 20.1602ZM190.908 19.3789C189.834 18.194 188.48 17.6016 186.846 17.6016C185.205 17.6016 183.848 18.1973 182.773 19.3887C181.797 20.4694 181.309 21.7454 181.309 23.2168C181.309 24.7012 181.823 26 182.852 27.1133C183.887 28.2201 185.218 28.7734 186.846 28.7734C188.467 28.7734 189.792 28.2201 190.82 27.1133C191.855 26 192.373 24.7012 192.373 23.2168C192.373 21.7389 191.885 20.4596 190.908 19.3789ZM183.926 20.1992C184.74 19.3594 185.713 18.9395 186.846 18.9395C187.972 18.9395 188.942 19.3594 189.756 20.1992C190.576 21.0391 190.986 22.0547 190.986 23.2461C190.986 24.0143 190.801 24.7305 190.43 25.3945C190.059 26.0586 189.557 26.5729 188.926 26.9375C188.294 27.2956 187.601 27.4746 186.846 27.4746C186.09 27.4746 185.397 27.2956 184.766 26.9375C184.134 26.5729 183.633 26.0586 183.262 25.3945C182.891 24.7305 182.705 24.0143 182.705 23.2461C182.705 22.0547 183.112 21.0391 183.926 20.1992ZM202.461 28.5H203.916L199.023 17.875H198.779L193.916 28.5H195.381L198.906 20.7656L202.461 28.5ZM216.113 25.5801L214.961 24.9746C214.544 25.6712 214.157 26.1758 213.799 26.4883C213.441 26.8008 213.005 27.0514 212.49 27.2402C211.982 27.429 211.458 27.5234 210.918 27.5234C209.798 27.5234 208.857 27.1296 208.096 26.3418C207.334 25.5475 206.94 24.5319 206.914 23.2949H216.465C216.452 21.8431 216.061 20.6322 215.293 19.6621C214.212 18.2884 212.767 17.6016 210.957 17.6016C209.199 17.6016 207.796 18.2721 206.748 19.6133C205.921 20.668 205.508 21.8691 205.508 23.2168C205.508 24.6491 205.996 25.9349 206.973 27.0742C207.949 28.207 209.303 28.7734 211.035 28.7734C211.816 28.7734 212.516 28.6562 213.135 28.4219C213.753 28.181 214.31 27.8327 214.805 27.377C215.299 26.9212 215.736 26.3223 216.113 25.5801ZM214.16 20.3652C214.512 20.8014 214.779 21.3841 214.961 22.1133H207.051C207.331 21.1367 207.744 20.4043 208.291 19.916C209.04 19.2454 209.935 18.9102 210.977 18.9102C211.608 18.9102 212.21 19.0436 212.783 19.3105C213.356 19.5775 213.815 19.929 214.16 20.3652ZM219.023 28.5H222.109C224.688 28.5 225.977 27.5234 225.977 25.5703C225.977 24.1771 225.286 23.2363 223.906 22.748C224.857 22.3639 225.332 21.6315 225.332 20.5508C225.332 19.8346 225.075 19.2096 224.561 18.6758C224.053 18.1419 223.219 17.875 222.061 17.875H219.023V28.5ZM220.4 22.377V19.0566H221.289C222.07 19.0566 222.585 19.0827 222.832 19.1348C223.086 19.1868 223.327 19.3626 223.555 19.6621C223.783 19.9616 223.896 20.3327 223.896 20.7754C223.896 21.1986 223.786 21.5404 223.564 21.8008C223.35 22.0547 223.118 22.2142 222.871 22.2793C222.624 22.3444 222.096 22.377 221.289 22.377H220.4ZM220.4 27.3477V23.627H222.432C223.031 23.627 223.512 23.7995 223.877 24.1445C224.242 24.4896 224.424 24.9518 224.424 25.5312C224.424 25.9805 224.316 26.3516 224.102 26.6445C223.893 26.9375 223.639 27.1296 223.34 27.2207C223.047 27.3053 222.555 27.3477 221.865 27.3477H220.4ZM237.607 20.7559L238.691 20.082C238.372 19.5482 237.985 19.1087 237.529 18.7637C237.074 18.4186 236.517 18.1387 235.859 17.9238C235.208 17.709 234.531 17.6016 233.828 17.6016C232.708 17.6016 231.696 17.849 230.791 18.3438C229.886 18.8385 229.173 19.5286 228.652 20.4141C228.138 21.293 227.881 22.2467 227.881 23.2754C227.881 24.8053 228.434 26.1042 229.541 27.1719C230.648 28.2396 232.041 28.7734 233.721 28.7734C234.814 28.7734 235.788 28.5651 236.641 28.1484C237.5 27.7253 238.184 27.1328 238.691 26.3711L237.607 25.6582C236.618 26.9017 235.342 27.5234 233.779 27.5234C232.926 27.5234 232.155 27.3346 231.465 26.957C230.781 26.5794 230.241 26.0488 229.844 25.3652C229.453 24.6816 229.258 23.9525 229.258 23.1777C229.258 21.9863 229.684 20.974 230.537 20.1406C231.396 19.3073 232.474 18.8906 233.77 18.8906C235.391 18.8906 236.67 19.5124 237.607 20.7559ZM247.129 17.875H240.137V19.0566H242.939V28.5H244.316V19.0566H247.129V17.875ZM248.984 28.5H252.07C254.648 28.5 255.938 27.5234 255.938 25.5703C255.938 24.1771 255.247 23.2363 253.867 22.748C254.818 22.3639 255.293 21.6315 255.293 20.5508C255.293 19.8346 255.036 19.2096 254.521 18.6758C254.014 18.1419 253.18 17.875 252.021 17.875H248.984V28.5ZM250.361 22.377V19.0566H251.25C252.031 19.0566 252.546 19.0827 252.793 19.1348C253.047 19.1868 253.288 19.3626 253.516 19.6621C253.743 19.9616 253.857 20.3327 253.857 20.7754C253.857 21.1986 253.747 21.5404 253.525 21.8008C253.311 22.0547 253.079 22.2142 252.832 22.2793C252.585 22.3444 252.057 22.377 251.25 22.377H250.361ZM250.361 27.3477V23.627H252.393C252.992 23.627 253.473 23.7995 253.838 24.1445C254.202 24.4896 254.385 24.9518 254.385 25.5312C254.385 25.9805 254.277 26.3516 254.062 26.6445C253.854 26.9375 253.6 27.1296 253.301 27.2207C253.008 27.3053 252.516 27.3477 251.826 27.3477H250.361ZM268.926 28.5V17.875H267.578V19.8281C267.044 19.0859 266.423 18.5293 265.713 18.1582C265.01 17.7871 264.222 17.6016 263.35 17.6016C261.839 17.6016 260.547 18.1452 259.473 19.2324C258.398 20.3197 257.861 21.6283 257.861 23.1582C257.861 24.7207 258.392 26.0488 259.453 27.1426C260.521 28.2298 261.807 28.7734 263.311 28.7734C264.157 28.7734 264.935 28.5977 265.645 28.2461C266.361 27.8945 267.005 27.3704 267.578 26.6738V28.5H268.926ZM261.348 19.4863C261.992 19.1087 262.695 18.9199 263.457 18.9199C264.642 18.9199 265.638 19.3333 266.445 20.1602C267.259 20.987 267.666 22.0156 267.666 23.2461C267.666 24.0534 267.484 24.7793 267.119 25.4238C266.761 26.0684 266.247 26.5794 265.576 26.957C264.906 27.3346 264.196 27.5234 263.447 27.5234C262.705 27.5234 262.008 27.3346 261.357 26.957C260.713 26.5729 260.199 26.0391 259.814 25.3555C259.43 24.6719 259.238 23.9557 259.238 23.207C259.238 22.4518 259.427 21.7357 259.805 21.0586C260.189 20.3815 260.703 19.8574 261.348 19.4863Z"/>
</mask>
<path fill-rule="evenodd" clip-rule="evenodd" d="M39.9999 34.3582C40.0121 37.1586 37.9732 39.4892 35.2944 39.9264C35.2046 39.9743 35.1037 40 35.0001 40L34.8161 39.9835C34.681 39.9939 34.5446 39.9994 34.407 40H10.5328C4.71576 40 0 35.2842 0 29.4672C0 23.7283 4.5901 19.0612 10.2993 18.937L10.5876 13.75H10.0001C9.59239 13.75 9.19579 13.617 8.87041 13.3713C8.54504 13.1256 8.30862 12.7805 8.19698 12.3884C8.08535 11.9962 8.10458 11.5784 8.25176 11.1982C8.39894 10.8179 8.66605 10.496 9.01261 10.2812L6.97511 7.21875C6.90897 7.11637 6.87421 6.99688 6.87511 6.875V0.625C6.87511 0.45924 6.94096 0.300269 7.05817 0.183058C7.17538 0.065848 7.33435 0 7.50011 0H10.6251C10.7909 0 10.9498 0.065848 11.0671 0.183058C11.1843 0.300269 11.2501 0.45924 11.2501 0.625V2.5H13.7501V0.625C13.7501 0.45924 13.816 0.300269 13.9332 0.183058C14.0504 0.065848 14.2094 0 14.3751 0H18.1251C18.2909 0 18.4498 0.065848 18.5671 0.183058C18.6843 0.300269 18.7501 0.45924 18.7501 0.625V2.5H21.2501V0.625C21.2501 0.45924 21.316 0.300269 21.4332 0.183058C21.5504 0.065848 21.7094 0 21.8751 0H25.6251C25.7909 0 25.9498 0.065848 26.0671 0.183058C26.1843 0.300269 26.2501 0.45924 26.2501 0.625V2.5H28.7501V0.625C28.7501 0.45924 28.816 0.300269 28.9332 0.183058C29.0504 0.065848 29.2094 0 29.3751 0H32.5001C32.6659 0 32.8248 0.065848 32.9421 0.183058C33.0593 0.300269 33.1251 0.45924 33.1251 0.625V6.875C33.1242 6.99752 33.0872 7.11706 33.0189 7.21875L30.9814 10.2812C31.3275 10.4957 31.5944 10.8171 31.7417 11.1967C31.889 11.5763 31.9087 11.9936 31.7979 12.3854C31.687 12.7772 31.4516 13.1223 31.1273 13.3685C30.803 13.6147 30.4073 13.7486 30.0001 13.75H29.4126L30.1092 25.9575C32.2737 25.9033 34.3483 26.9915 35.5208 28.8816C38.1202 29.4193 39.9884 31.7035 39.9999 34.3582ZM18.4108 21.6201C21.6591 20.3173 25.2535 21.2756 27.4513 23.75H28.7439L28.1876 13.75H11.8751L11.6314 17.5H16.2501C16.4159 17.5 16.5748 17.5658 16.6921 17.6831C16.8093 17.8003 16.8751 17.9592 16.8751 18.125C16.8751 18.2908 16.8093 18.4497 16.6921 18.5669C16.5748 18.6842 16.4159 18.75 16.2501 18.75H11.5626L11.5497 18.9826C13.897 19.2092 16.1092 20.2288 17.8116 21.8894C18.0077 21.7914 18.2077 21.7017 18.4108 21.6201ZM10.0001 1.25V3.125C10.0001 3.29076 10.066 3.44973 10.1832 3.56694C10.3004 3.68415 10.4594 3.75 10.6251 3.75H14.3751C14.5409 3.75 14.6998 3.68415 14.8171 3.56694C14.9343 3.44973 15.0001 3.29076 15.0001 3.125V1.25H17.5001V3.125C17.5001 3.29076 17.566 3.44973 17.6832 3.56694C17.8004 3.68415 17.9594 3.75 18.1251 3.75H21.8751C22.0409 3.75 22.1998 3.68415 22.3171 3.56694C22.4343 3.44973 22.5001 3.29076 22.5001 3.125V1.25H25.0001V3.125C25.0001 3.29076 25.066 3.44973 25.1832 3.56694C25.3004 3.68415 25.4594 3.75 25.6251 3.75H29.3751C29.5409 3.75 29.6998 3.68415 29.8171 3.56694C29.9343 3.44973 30.0001 3.29076 30.0001 3.125V1.25H31.8751V6.25H8.12511V1.25H10.0001ZM31.3314 7.5L29.6626 10H10.3376L8.66886 7.5H31.3314ZM9.37511 11.875C9.37511 11.7092 9.44096 11.5503 9.55817 11.4331C9.67538 11.3158 9.83435 11.25 10.0001 11.25H30.0001C30.1659 11.25 30.3248 11.3158 30.4421 11.4331C30.5593 11.5503 30.6251 11.7092 30.6251 11.875C30.6251 12.0408 30.5593 12.1997 30.4421 12.3169C30.3248 12.4342 30.1659 12.5 30.0001 12.5H10.0001C9.83435 12.5 9.67538 12.4342 9.55817 12.3169C9.44096 12.1997 9.37511 12.0408 9.37511 11.875ZM55.7812 13.7734C54.2969 13.7734 53.0501 14.3594 52.041 15.5312L53.0273 16.4102C53.8737 15.5378 54.7786 15.1016 55.7422 15.1016C56.4844 15.1016 57.0964 15.3392 57.5781 15.8145C58.0664 16.2832 58.3105 16.918 58.3105 17.7188C58.3105 19.444 57.2461 20.3066 55.1172 20.3066H54.6387V21.5664H54.8828C55.7031 21.5664 56.2923 21.599 56.6504 21.6641C57.0085 21.7292 57.3861 21.8854 57.7832 22.1328C58.1803 22.3802 58.4863 22.7057 58.7012 23.1094C58.9225 23.5065 59.0332 23.9753 59.0332 24.5156C59.0332 25.5378 58.7142 26.3125 58.0762 26.8398C57.4382 27.3672 56.6634 27.6309 55.752 27.6309C55.127 27.6309 54.5247 27.4941 53.9453 27.2207C53.3659 26.9408 52.7441 26.3125 52.0801 25.3359L50.9668 25.9902C51.6374 27.0579 52.3503 27.8066 53.1055 28.2363C53.8672 28.6595 54.7624 28.8711 55.791 28.8711C57.2624 28.8711 58.4212 28.474 59.2676 27.6797C60.1139 26.8854 60.5371 25.8372 60.5371 24.5352C60.5371 22.582 59.5898 21.3125 57.6953 20.7266C59.1341 20.0625 59.8535 18.9655 59.8535 17.4355C59.8535 16.3548 59.4694 15.4759 58.7012 14.7988C57.9329 14.1152 56.9596 13.7734 55.7812 13.7734ZM73.7305 28.5V17.875H72.3828V19.8281C71.849 19.0859 71.2272 18.5293 70.5176 18.1582C69.8145 17.7871 69.0267 17.6016 68.1543 17.6016C66.6439 17.6016 65.3516 18.1452 64.2773 19.2324C63.2031 20.3197 62.666 21.6283 62.666 23.1582C62.666 24.7207 63.1966 26.0488 64.2578 27.1426C65.3255 28.2298 66.6113 28.7734 68.1152 28.7734C68.9616 28.7734 69.7396 28.5977 70.4492 28.2461C71.1654 27.8945 71.8099 27.3704 72.3828 26.6738V28.5H73.7305ZM66.1523 19.4863C66.7969 19.1087 67.5 18.9199 68.2617 18.9199C69.4466 18.9199 70.4427 19.3333 71.25 20.1602C72.0638 20.987 72.4707 22.0156 72.4707 23.2461C72.4707 24.0534 72.2884 24.7793 71.9238 25.4238C71.5658 26.0684 71.0514 26.5794 70.3809 26.957C69.7103 27.3346 69.0006 27.5234 68.252 27.5234C67.5098 27.5234 66.8131 27.3346 66.1621 26.957C65.5176 26.5729 65.0033 26.0391 64.6191 25.3555C64.235 24.6719 64.043 23.9557 64.043 23.207C64.043 22.4518 64.2318 21.7357 64.6094 21.0586C64.9935 20.3815 65.5078 19.8574 66.1523 19.4863ZM86.9824 14.8574V13.5488C86.4941 13.6204 85.8919 13.666 85.1758 13.6855C82.8516 13.7441 81.2663 13.8906 80.4199 14.125C79.5736 14.3594 78.8835 14.6816 78.3496 15.0918C77.8158 15.502 77.3405 16.1758 76.9238 17.1133C76.5137 18.0443 76.3086 19.418 76.3086 21.2344C76.3086 23.8385 76.8717 25.7461 77.998 26.957C79.1244 28.168 80.498 28.7734 82.1191 28.7734C83.7012 28.7734 85.0195 28.2266 86.0742 27.1328C87.1289 26.0391 87.6562 24.7337 87.6562 23.2168C87.6562 21.6868 87.1256 20.3685 86.0645 19.2617C85.0098 18.1549 83.6947 17.6016 82.1191 17.6016C81.084 17.6016 80.14 17.8848 79.2871 18.4512C78.4408 19.0176 77.832 19.9095 77.4609 21.127L77.5977 19.6328C77.6758 18.8255 77.8711 18.0964 78.1836 17.4453C78.5026 16.7878 78.8932 16.2995 79.3555 15.9805C79.8177 15.6549 80.3581 15.4368 80.9766 15.3262C81.6016 15.209 82.487 15.1309 83.6328 15.0918C85.2148 15.0462 86.3314 14.9681 86.9824 14.8574ZM85.0391 20.209C85.8594 21.0553 86.2695 22.0677 86.2695 23.2461C86.2695 24.418 85.8724 25.4173 85.0781 26.2441C84.2904 27.0645 83.304 27.4746 82.1191 27.4746C80.9408 27.4746 79.9544 27.0645 79.1602 26.2441C78.3724 25.4173 77.9785 24.418 77.9785 23.2461C77.9785 22.0677 78.3887 21.0553 79.209 20.209C80.0293 19.3626 80.9994 18.9395 82.1191 18.9395C83.2454 18.9395 84.2188 19.3626 85.0391 20.209ZM92.8516 22.084H91.5527V17.875H90.1953V28.5H93.7305C94.974 28.5 95.9017 28.1908 96.5137 27.5723C97.1256 26.9473 97.4316 26.1986 97.4316 25.3262C97.4316 24.6035 97.2201 23.9655 96.7969 23.4121C96.3737 22.8522 95.8691 22.4909 95.2832 22.3281C94.6973 22.1654 93.8867 22.084 92.8516 22.084ZM91.6016 27.3477V23.334H92.7637C93.7272 23.334 94.3978 23.4056 94.7754 23.5488C95.1595 23.6921 95.4492 23.9427 95.6445 24.3008C95.8464 24.6589 95.9473 25.0234 95.9473 25.3945C95.9473 26.6966 95.0228 27.3477 93.1738 27.3477H91.6016ZM100.693 17.875H99.3164V28.5H100.693V17.875ZM109.414 17.875H102.422V19.0566H105.225V28.5H106.602V19.0566H109.414V17.875ZM113.926 22.084H112.627V17.875H111.27V28.5H114.805C116.048 28.5 116.976 28.1908 117.588 27.5723C118.2 26.9473 118.506 26.1986 118.506 25.3262C118.506 24.6035 118.294 23.9655 117.871 23.4121C117.448 22.8522 116.943 22.4909 116.357 22.3281C115.771 22.1654 114.961 22.084 113.926 22.084ZM112.676 27.3477V23.334H113.838C114.801 23.334 115.472 23.4056 115.85 23.5488C116.234 23.6921 116.523 23.9427 116.719 24.3008C116.921 24.6589 117.021 25.0234 117.021 25.3945C117.021 26.6966 116.097 27.3477 114.248 27.3477H112.676ZM121.768 17.875H120.391V28.5H121.768V17.875ZM134.785 25.5801L133.633 24.9746C133.216 25.6712 132.829 26.1758 132.471 26.4883C132.113 26.8008 131.676 27.0514 131.162 27.2402C130.654 27.429 130.13 27.5234 129.59 27.5234C128.47 27.5234 127.529 27.1296 126.768 26.3418C126.006 25.5475 125.612 24.5319 125.586 23.2949H135.137C135.124 21.8431 134.733 20.6322 133.965 19.6621C132.884 18.2884 131.439 17.6016 129.629 17.6016C127.871 17.6016 126.468 18.2721 125.42 19.6133C124.593 20.668 124.18 21.8691 124.18 23.2168C124.18 24.6491 124.668 25.9349 125.645 27.0742C126.621 28.207 127.975 28.7734 129.707 28.7734C130.488 28.7734 131.188 28.6562 131.807 28.4219C132.425 28.181 132.982 27.8327 133.477 27.377C133.971 26.9212 134.408 26.3223 134.785 25.5801ZM132.832 20.3652C133.184 20.8014 133.451 21.3841 133.633 22.1133H125.723C126.003 21.1367 126.416 20.4043 126.963 19.916C127.712 19.2454 128.607 18.9102 129.648 18.9102C130.28 18.9102 130.882 19.0436 131.455 19.3105C132.028 19.5775 132.487 19.929 132.832 20.3652ZM144.932 14.1348H143.467V28.5H144.932V21.8008L151.24 28.5H153.145L145.703 20.5801L152.607 14.1348H150.664L144.932 19.5254V14.1348ZM164.15 19.3789C163.076 18.194 161.722 17.6016 160.088 17.6016C158.447 17.6016 157.09 18.1973 156.016 19.3887C155.039 20.4694 154.551 21.7454 154.551 23.2168C154.551 24.7012 155.065 26 156.094 27.1133C157.129 28.2201 158.46 28.7734 160.088 28.7734C161.709 28.7734 163.034 28.2201 164.062 27.1133C165.098 26 165.615 24.7012 165.615 23.2168C165.615 21.7389 165.127 20.4596 164.15 19.3789ZM157.168 20.1992C157.982 19.3594 158.955 18.9395 160.088 18.9395C161.214 18.9395 162.184 19.3594 162.998 20.1992C163.818 21.0391 164.229 22.0547 164.229 23.2461C164.229 24.0143 164.043 24.7305 163.672 25.3945C163.301 26.0586 162.799 26.5729 162.168 26.9375C161.536 27.2956 160.843 27.4746 160.088 27.4746C159.333 27.4746 158.639 27.2956 158.008 26.9375C157.376 26.5729 156.875 26.0586 156.504 25.3945C156.133 24.7305 155.947 24.0143 155.947 23.2461C155.947 22.0547 156.354 21.0391 157.168 20.1992ZM169.541 17.875H168.184V32.3867H169.541V26.6738C170.114 27.3704 170.755 27.8945 171.465 28.2461C172.174 28.5977 172.952 28.7734 173.799 28.7734C175.303 28.7734 176.585 28.2298 177.646 27.1426C178.714 26.0488 179.248 24.7207 179.248 23.1582C179.248 21.6283 178.711 20.3197 177.637 19.2324C176.562 18.1452 175.27 17.6016 173.76 17.6016C172.894 17.6016 172.109 17.7871 171.406 18.1582C170.703 18.5293 170.081 19.0859 169.541 19.8281V17.875ZM170.654 20.1602C171.468 19.3333 172.467 18.9199 173.652 18.9199C174.414 18.9199 175.117 19.1087 175.762 19.4863C176.406 19.8574 176.917 20.3815 177.295 21.0586C177.679 21.7357 177.871 22.4518 177.871 23.207C177.871 23.9557 177.679 24.6719 177.295 25.3555C176.911 26.0391 176.393 26.5729 175.742 26.957C175.098 27.3346 174.408 27.5234 173.672 27.5234C172.923 27.5234 172.21 27.3346 171.533 26.957C170.863 26.5794 170.345 26.0684 169.98 25.4238C169.622 24.7793 169.443 24.0534 169.443 23.2461C169.443 22.0156 169.847 20.987 170.654 20.1602ZM190.908 19.3789C189.834 18.194 188.48 17.6016 186.846 17.6016C185.205 17.6016 183.848 18.1973 182.773 19.3887C181.797 20.4694 181.309 21.7454 181.309 23.2168C181.309 24.7012 181.823 26 182.852 27.1133C183.887 28.2201 185.218 28.7734 186.846 28.7734C188.467 28.7734 189.792 28.2201 190.82 27.1133C191.855 26 192.373 24.7012 192.373 23.2168C192.373 21.7389 191.885 20.4596 190.908 19.3789ZM183.926 20.1992C184.74 19.3594 185.713 18.9395 186.846 18.9395C187.972 18.9395 188.942 19.3594 189.756 20.1992C190.576 21.0391 190.986 22.0547 190.986 23.2461C190.986 24.0143 190.801 24.7305 190.43 25.3945C190.059 26.0586 189.557 26.5729 188.926 26.9375C188.294 27.2956 187.601 27.4746 186.846 27.4746C186.09 27.4746 185.397 27.2956 184.766 26.9375C184.134 26.5729 183.633 26.0586 183.262 25.3945C182.891 24.7305 182.705 24.0143 182.705 23.2461C182.705 22.0547 183.112 21.0391 183.926 20.1992ZM202.461 28.5H203.916L199.023 17.875H198.779L193.916 28.5H195.381L198.906 20.7656L202.461 28.5ZM216.113 25.5801L214.961 24.9746C214.544 25.6712 214.157 26.1758 213.799 26.4883C213.441 26.8008 213.005 27.0514 212.49 27.2402C211.982 27.429 211.458 27.5234 210.918 27.5234C209.798 27.5234 208.857 27.1296 208.096 26.3418C207.334 25.5475 206.94 24.5319 206.914 23.2949H216.465C216.452 21.8431 216.061 20.6322 215.293 19.6621C214.212 18.2884 212.767 17.6016 210.957 17.6016C209.199 17.6016 207.796 18.2721 206.748 19.6133C205.921 20.668 205.508 21.8691 205.508 23.2168C205.508 24.6491 205.996 25.9349 206.973 27.0742C207.949 28.207 209.303 28.7734 211.035 28.7734C211.816 28.7734 212.516 28.6562 213.135 28.4219C213.753 28.181 214.31 27.8327 214.805 27.377C215.299 26.9212 215.736 26.3223 216.113 25.5801ZM214.16 20.3652C214.512 20.8014 214.779 21.3841 214.961 22.1133H207.051C207.331 21.1367 207.744 20.4043 208.291 19.916C209.04 19.2454 209.935 18.9102 210.977 18.9102C211.608 18.9102 212.21 19.0436 212.783 19.3105C213.356 19.5775 213.815 19.929 214.16 20.3652ZM219.023 28.5H222.109C224.688 28.5 225.977 27.5234 225.977 25.5703C225.977 24.1771 225.286 23.2363 223.906 22.748C224.857 22.3639 225.332 21.6315 225.332 20.5508C225.332 19.8346 225.075 19.2096 224.561 18.6758C224.053 18.1419 223.219 17.875 222.061 17.875H219.023V28.5ZM220.4 22.377V19.0566H221.289C222.07 19.0566 222.585 19.0827 222.832 19.1348C223.086 19.1868 223.327 19.3626 223.555 19.6621C223.783 19.9616 223.896 20.3327 223.896 20.7754C223.896 21.1986 223.786 21.5404 223.564 21.8008C223.35 22.0547 223.118 22.2142 222.871 22.2793C222.624 22.3444 222.096 22.377 221.289 22.377H220.4ZM220.4 27.3477V23.627H222.432C223.031 23.627 223.512 23.7995 223.877 24.1445C224.242 24.4896 224.424 24.9518 224.424 25.5312C224.424 25.9805 224.316 26.3516 224.102 26.6445C223.893 26.9375 223.639 27.1296 223.34 27.2207C223.047 27.3053 222.555 27.3477 221.865 27.3477H220.4ZM237.607 20.7559L238.691 20.082C238.372 19.5482 237.985 19.1087 237.529 18.7637C237.074 18.4186 236.517 18.1387 235.859 17.9238C235.208 17.709 234.531 17.6016 233.828 17.6016C232.708 17.6016 231.696 17.849 230.791 18.3438C229.886 18.8385 229.173 19.5286 228.652 20.4141C228.138 21.293 227.881 22.2467 227.881 23.2754C227.881 24.8053 228.434 26.1042 229.541 27.1719C230.648 28.2396 232.041 28.7734 233.721 28.7734C234.814 28.7734 235.788 28.5651 236.641 28.1484C237.5 27.7253 238.184 27.1328 238.691 26.3711L237.607 25.6582C236.618 26.9017 235.342 27.5234 233.779 27.5234C232.926 27.5234 232.155 27.3346 231.465 26.957C230.781 26.5794 230.241 26.0488 229.844 25.3652C229.453 24.6816 229.258 23.9525 229.258 23.1777C229.258 21.9863 229.684 20.974 230.537 20.1406C231.396 19.3073 232.474 18.8906 233.77 18.8906C235.391 18.8906 236.67 19.5124 237.607 20.7559ZM247.129 17.875H240.137V19.0566H242.939V28.5H244.316V19.0566H247.129V17.875ZM248.984 28.5H252.07C254.648 28.5 255.938 27.5234 255.938 25.5703C255.938 24.1771 255.247 23.2363 253.867 22.748C254.818 22.3639 255.293 21.6315 255.293 20.5508C255.293 19.8346 255.036 19.2096 254.521 18.6758C254.014 18.1419 253.18 17.875 252.021 17.875H248.984V28.5ZM250.361 22.377V19.0566H251.25C252.031 19.0566 252.546 19.0827 252.793 19.1348C253.047 19.1868 253.288 19.3626 253.516 19.6621C253.743 19.9616 253.857 20.3327 253.857 20.7754C253.857 21.1986 253.747 21.5404 253.525 21.8008C253.311 22.0547 253.079 22.2142 252.832 22.2793C252.585 22.3444 252.057 22.377 251.25 22.377H250.361ZM250.361 27.3477V23.627H252.393C252.992 23.627 253.473 23.7995 253.838 24.1445C254.202 24.4896 254.385 24.9518 254.385 25.5312C254.385 25.9805 254.277 26.3516 254.062 26.6445C253.854 26.9375 253.6 27.1296 253.301 27.2207C253.008 27.3053 252.516 27.3477 251.826 27.3477H250.361ZM268.926 28.5V17.875H267.578V19.8281C267.044 19.0859 266.423 18.5293 265.713 18.1582C265.01 17.7871 264.222 17.6016 263.35 17.6016C261.839 17.6016 260.547 18.1452 259.473 19.2324C258.398 20.3197 257.861 21.6283 257.861 23.1582C257.861 24.7207 258.392 26.0488 259.453 27.1426C260.521 28.2298 261.807 28.7734 263.311 28.7734C264.157 28.7734 264.935 28.5977 265.645 28.2461C266.361 27.8945 267.005 27.3704 267.578 26.6738V28.5H268.926ZM261.348 19.4863C261.992 19.1087 262.695 18.9199 263.457 18.9199C264.642 18.9199 265.638 19.3333 266.445 20.1602C267.259 20.987 267.666 22.0156 267.666 23.2461C267.666 24.0534 267.484 24.7793 267.119 25.4238C266.761 26.0684 266.247 26.5794 265.576 26.957C264.906 27.3346 264.196 27.5234 263.447 27.5234C262.705 27.5234 262.008 27.3346 261.357 26.957C260.713 26.5729 260.199 26.0391 259.814 25.3555C259.43 24.6719 259.238 23.9557 259.238 23.207C259.238 22.4518 259.427 21.7357 259.805 21.0586C260.189 20.3815 260.703 19.8574 261.348 19.4863Z" fill="white"/>
<path d="M35.2944 39.9264L35.1333 38.9395L34.9698 38.9661L34.8236 39.0442L35.2944 39.9264ZM39.9999 34.3582L40.9999 34.3538L40.9999 34.3538L39.9999 34.3582ZM35.0001 40L34.911 40.996L34.9555 41H35.0001V40ZM34.8161 39.9835L34.9052 38.9875L34.8227 38.9801L34.74 38.9864L34.8161 39.9835ZM34.407 40L34.407 41L34.4113 41L34.407 40ZM10.2993 18.937L10.321 19.9368L11.2464 19.9166L11.2977 18.9925L10.2993 18.937ZM10.5876 13.75L11.5861 13.8055L11.6447 12.75H10.5876V13.75ZM10.0001 13.75L10 14.75H10.0001V13.75ZM9.01261 10.2812L9.5394 11.1313L10.4173 10.5872L9.84519 9.72733L9.01261 10.2812ZM6.97511 7.21875L6.13506 7.76143L6.14254 7.77267L6.97511 7.21875ZM6.87511 6.875L7.87511 6.88237V6.875H6.87511ZM7.05817 0.183058L7.76528 0.890165L7.76528 0.890164L7.05817 0.183058ZM11.0671 0.183058L11.7742 -0.524049L11.7742 -0.524049L11.0671 0.183058ZM11.2501 2.5H10.2501V3.5H11.2501V2.5ZM13.7501 2.5V3.5H14.7501V2.5H13.7501ZM13.9332 0.183058L13.2261 -0.524049L13.2261 -0.524049L13.9332 0.183058ZM18.5671 0.183058L19.2742 -0.524049L19.2742 -0.524049L18.5671 0.183058ZM18.7501 2.5H17.7501V3.5H18.7501V2.5ZM21.2501 2.5V3.5H22.2501V2.5H21.2501ZM21.4332 0.183058L20.7261 -0.524049L20.7261 -0.524049L21.4332 0.183058ZM26.0671 0.183058L26.7742 -0.524049L26.7742 -0.524049L26.0671 0.183058ZM26.2501 2.5H25.2501V3.5H26.2501V2.5ZM28.7501 2.5V3.5H29.7501V2.5H28.7501ZM28.9332 0.183058L28.2261 -0.524049L28.2261 -0.524049L28.9332 0.183058ZM32.9421 0.183058L33.6492 -0.524049L33.6492 -0.524049L32.9421 0.183058ZM33.1251 6.875L34.1251 6.88285V6.875H33.1251ZM33.0189 7.21875L32.1889 6.66092L32.1863 6.66483L33.0189 7.21875ZM30.9814 10.2812L30.1488 9.72733L29.5767 10.5872L30.4546 11.1313L30.9814 10.2812ZM30.0001 13.75L30.0001 14.75L30.0036 14.75L30.0001 13.75ZM29.4126 13.75V12.75H28.3539L28.4142 13.807L29.4126 13.75ZM30.1092 25.9575L29.1108 26.0145L29.166 26.9815L30.1342 26.9572L30.1092 25.9575ZM35.5208 28.8816L34.671 29.4087L34.8974 29.7738L35.3182 29.8608L35.5208 28.8816ZM27.4513 23.75L26.7036 24.4141L27.002 24.75H27.4513V23.75ZM18.4108 21.6201L18.0386 20.6919L18.0379 20.6922L18.4108 21.6201ZM28.7439 23.75V24.75H29.801L29.7423 23.6945L28.7439 23.75ZM28.1876 13.75L29.1861 13.6945L29.1335 12.75H28.1876V13.75ZM11.8751 13.75V12.75H10.938L10.8772 13.6851L11.8751 13.75ZM11.6314 17.5L10.6335 17.4351L10.5643 18.5H11.6314V17.5ZM11.5626 18.75V17.75H10.6165L10.5641 18.6947L11.5626 18.75ZM11.5497 18.9826L10.5513 18.9273L10.4982 19.8857L11.4536 19.978L11.5497 18.9826ZM17.8116 21.8894L17.1134 22.6053L17.6226 23.102L18.2589 22.7838L17.8116 21.8894ZM10.0001 1.25H11.0001V0.25H10.0001V1.25ZM15.0001 1.25V0.25H14.0001V1.25H15.0001ZM17.5001 1.25H18.5001V0.25H17.5001V1.25ZM22.5001 1.25V0.25H21.5001V1.25H22.5001ZM25.0001 1.25H26.0001V0.25H25.0001V1.25ZM30.0001 1.25V0.25H29.0001V1.25H30.0001ZM31.8751 1.25H32.8751V0.25H31.8751V1.25ZM31.8751 6.25V7.25H32.8751V6.25H31.8751ZM8.12511 6.25H7.12511V7.25H8.12511V6.25ZM8.12511 1.25V0.25H7.12511V1.25H8.12511ZM29.6626 10V11H30.1974L30.4943 10.5552L29.6626 10ZM31.3314 7.5L32.1631 8.05518L33.2012 6.5H31.3314V7.5ZM10.3376 10L9.50588 10.5552L9.8028 11H10.3376V10ZM8.66886 7.5V6.5H6.79905L7.83713 8.05518L8.66886 7.5ZM52.041 15.5312L51.2832 14.8787L50.6417 15.6238L51.3757 16.2778L52.041 15.5312ZM53.0273 16.4102L52.3621 17.1567L53.0777 17.7944L53.7451 17.1065L53.0273 16.4102ZM57.5781 15.8145L56.8758 16.5264L56.8856 16.5358L57.5781 15.8145ZM54.6387 20.3066V19.3066H53.6387V20.3066H54.6387ZM54.6387 21.5664H53.6387V22.5664H54.6387V21.5664ZM58.7012 23.1094L57.8184 23.5792L57.823 23.5878L57.8277 23.5962L58.7012 23.1094ZM53.9453 27.2207L53.5103 28.1212L53.5185 28.1251L53.9453 27.2207ZM52.0801 25.3359L52.907 24.7736L52.3805 23.9994L51.5734 24.4738L52.0801 25.3359ZM50.9668 25.9902L50.4601 25.1281L49.5722 25.6499L50.12 26.5221L50.9668 25.9902ZM53.1055 28.2363L52.6109 29.1055L52.6198 29.1105L53.1055 28.2363ZM57.6953 20.7266L57.2763 19.8186L54.9085 20.9114L57.3998 21.6819L57.6953 20.7266ZM58.7012 14.7988L58.0364 15.5459L58.04 15.549L58.7012 14.7988ZM73.7305 17.875H74.7305V16.875H73.7305V17.875ZM73.7305 28.5V29.5H74.7305V28.5H73.7305ZM72.3828 17.875V16.875H71.3828V17.875H72.3828ZM72.3828 19.8281L71.571 20.4121L73.3828 22.9309V19.8281H72.3828ZM70.5176 18.1582L70.0508 19.0426L70.0542 19.0444L70.5176 18.1582ZM64.2578 27.1426L63.5401 27.8389L63.5443 27.8432L64.2578 27.1426ZM70.4492 28.2461L70.0085 27.3484L70.0053 27.35L70.4492 28.2461ZM72.3828 26.6738H73.3828V23.8836L71.6105 26.0386L72.3828 26.6738ZM72.3828 28.5H71.3828V29.5H72.3828V28.5ZM66.1523 19.4863L66.6513 20.353L66.6578 20.3492L66.1523 19.4863ZM71.25 20.1602L70.5345 20.8588L70.5373 20.8616L71.25 20.1602ZM71.9238 25.4238L71.0534 24.9315L71.0497 24.9382L71.9238 25.4238ZM66.1621 26.957L65.6501 27.8161L65.6604 27.8221L66.1621 26.957ZM64.6094 21.0586L63.7396 20.5651L63.736 20.5715L64.6094 21.0586ZM86.9824 13.5488H87.9824V12.3915L86.8373 12.5594L86.9824 13.5488ZM86.9824 14.8574L87.15 15.8433L87.9824 15.7018V14.8574H86.9824ZM85.1758 13.6855L85.201 14.6852L85.203 14.6852L85.1758 13.6855ZM76.9238 17.1133L76.01 16.7071L76.0087 16.7101L76.9238 17.1133ZM86.0645 19.2617L85.3405 19.9516L85.3426 19.9538L86.0645 19.2617ZM79.2871 18.4512L78.7339 17.6181L78.7309 17.6201L79.2871 18.4512ZM77.4609 21.127L76.4651 21.0358L78.4175 21.4185L77.4609 21.127ZM77.5977 19.6328L76.6023 19.5365L76.6018 19.5417L77.5977 19.6328ZM78.1836 17.4453L77.2839 17.0088L77.2821 17.0126L78.1836 17.4453ZM79.3555 15.9805L79.9235 16.8035L79.9312 16.7981L79.3555 15.9805ZM80.9766 15.3262L81.1527 16.3106L81.1609 16.309L80.9766 15.3262ZM83.6328 15.0918L83.604 14.0922L83.5987 14.0924L83.6328 15.0918ZM85.0781 26.2441L84.357 25.5514L84.3569 25.5515L85.0781 26.2441ZM79.1602 26.2441L78.4361 26.934L78.4417 26.9398L79.1602 26.2441ZM91.5527 22.084H90.5527V23.084H91.5527V22.084ZM91.5527 17.875H92.5527V16.875H91.5527V17.875ZM90.1953 17.875V16.875H89.1953V17.875H90.1953ZM90.1953 28.5H89.1953V29.5H90.1953V28.5ZM96.5137 27.5723L97.2245 28.2756L97.2282 28.2719L96.5137 27.5723ZM96.7969 23.4121L95.9991 24.0151L96.0025 24.0196L96.7969 23.4121ZM91.6016 23.334V22.334H90.6016V23.334H91.6016ZM91.6016 27.3477H90.6016V28.3477H91.6016V27.3477ZM94.7754 23.5488L94.4207 24.4838L94.426 24.4858L94.7754 23.5488ZM95.6445 24.3008L94.7666 24.7797L94.7734 24.7918L95.6445 24.3008ZM99.3164 17.875V16.875H98.3164V17.875H99.3164ZM100.693 17.875H101.693V16.875H100.693V17.875ZM99.3164 28.5H98.3164V29.5H99.3164V28.5ZM100.693 28.5V29.5H101.693V28.5H100.693ZM102.422 17.875V16.875H101.422V17.875H102.422ZM109.414 17.875H110.414V16.875H109.414V17.875ZM102.422 19.0566H101.422V20.0566H102.422V19.0566ZM105.225 19.0566H106.225V18.0566H105.225V19.0566ZM105.225 28.5H104.225V29.5H105.225V28.5ZM106.602 28.5V29.5H107.602V28.5H106.602ZM106.602 19.0566V18.0566H105.602V19.0566H106.602ZM109.414 19.0566V20.0566H110.414V19.0566H109.414ZM112.627 22.084H111.627V23.084H112.627V22.084ZM112.627 17.875H113.627V16.875H112.627V17.875ZM111.27 17.875V16.875H110.27V17.875H111.27ZM111.27 28.5H110.27V29.5H111.27V28.5ZM117.588 27.5723L118.299 28.2756L118.302 28.2719L117.588 27.5723ZM117.871 23.4121L117.073 24.0151L117.077 24.0196L117.871 23.4121ZM112.676 23.334V22.334H111.676V23.334H112.676ZM112.676 27.3477H111.676V28.3477H112.676V27.3477ZM115.85 23.5488L115.495 24.4838L115.5 24.4858L115.85 23.5488ZM116.719 24.3008L115.841 24.7797L115.848 24.7918L116.719 24.3008ZM120.391 17.875V16.875H119.391V17.875H120.391ZM121.768 17.875H122.768V16.875H121.768V17.875ZM120.391 28.5H119.391V29.5H120.391V28.5ZM121.768 28.5V29.5H122.768V28.5H121.768ZM133.633 24.9746L134.098 24.0894L133.26 23.6493L132.775 24.4613L133.633 24.9746ZM134.785 25.5801L135.676 26.0335L136.124 25.1539L135.25 24.6948L134.785 25.5801ZM131.162 27.2402L130.818 26.3015L130.814 26.3029L131.162 27.2402ZM126.768 26.3418L126.046 27.034L126.049 27.0369L126.768 26.3418ZM125.586 23.2949V22.2949H124.565L124.586 23.316L125.586 23.2949ZM135.137 23.2949V24.2949H136.146L136.137 23.286L135.137 23.2949ZM133.965 19.6621L133.179 20.2804L133.181 20.2829L133.965 19.6621ZM125.42 19.6133L126.207 20.2302L126.208 20.2291L125.42 19.6133ZM125.645 27.0742L124.885 27.725L124.887 27.7272L125.645 27.0742ZM131.807 28.4219L132.161 29.357L132.17 29.3537L131.807 28.4219ZM133.633 22.1133V23.1133H134.914L134.603 21.8707L133.633 22.1133ZM132.832 20.3652L132.048 20.9857L132.053 20.9928L132.832 20.3652ZM125.723 22.1133L124.761 21.8377L124.396 23.1133H125.723V22.1133ZM126.963 19.916L127.629 20.662L127.63 20.6609L126.963 19.916ZM143.467 14.1348V13.1348H142.467V14.1348H143.467ZM144.932 14.1348H145.932V13.1348H144.932V14.1348ZM143.467 28.5H142.467V29.5H143.467V28.5ZM144.932 28.5V29.5H145.932V28.5H144.932ZM144.932 21.8008L145.66 21.1152L143.932 19.2802V21.8008H144.932ZM151.24 28.5L150.512 29.1856L150.808 29.5H151.24V28.5ZM153.145 28.5V29.5H155.456L153.873 27.8153L153.145 28.5ZM145.703 20.5801L145.021 19.8491L144.287 20.5337L144.974 21.2648L145.703 20.5801ZM152.607 14.1348L153.29 14.8658L155.144 13.1348H152.607V14.1348ZM150.664 14.1348V13.1348H150.268L149.979 13.4063L150.664 14.1348ZM144.932 19.5254H143.932V21.8385L145.617 20.2539L144.932 19.5254ZM164.15 19.3789L164.892 18.7085L164.891 18.7072L164.15 19.3789ZM156.016 19.3887L156.758 20.0591L156.758 20.0583L156.016 19.3887ZM156.094 27.1133L155.359 27.7919L155.363 27.7964L156.094 27.1133ZM164.062 27.1133L163.33 26.4323L163.33 26.4325L164.062 27.1133ZM162.998 20.1992L162.28 20.8951L162.283 20.898L162.998 20.1992ZM162.168 26.9375L162.661 27.8074L162.668 27.8035L162.168 26.9375ZM158.008 26.9375L157.508 27.8036L157.515 27.8074L158.008 26.9375ZM168.184 17.875V16.875H167.184V17.875H168.184ZM169.541 17.875H170.541V16.875H169.541V17.875ZM168.184 32.3867H167.184V33.3867H168.184V32.3867ZM169.541 32.3867V33.3867H170.541V32.3867H169.541ZM169.541 26.6738L170.313 26.0386L168.541 23.8836V26.6738H169.541ZM177.646 27.1426L176.931 26.444L176.931 26.4441L177.646 27.1426ZM169.541 19.8281H168.541V22.9006L170.349 20.4167L169.541 19.8281ZM170.654 20.1602L169.942 19.4587L169.939 19.4615L170.654 20.1602ZM175.762 19.4863L175.256 20.3492L175.263 20.353L175.762 19.4863ZM177.295 21.0586L176.422 21.5457L176.425 21.552L177.295 21.0586ZM175.742 26.957L176.248 27.8199L176.25 27.8183L175.742 26.957ZM171.533 26.957L171.043 27.8284L171.046 27.8304L171.533 26.957ZM169.98 25.4238L169.106 25.9095L169.11 25.9162L169.98 25.4238ZM190.908 19.3789L191.65 18.7085L191.649 18.7072L190.908 19.3789ZM182.773 19.3887L183.515 20.0591L183.516 20.0583L182.773 19.3887ZM182.852 27.1133L182.117 27.7919L182.121 27.7964L182.852 27.1133ZM190.82 27.1133L190.088 26.4323L190.088 26.4325L190.82 27.1133ZM189.756 20.1992L189.038 20.8951L189.04 20.898L189.756 20.1992ZM188.926 26.9375L189.419 27.8074L189.426 27.8035L188.926 26.9375ZM184.766 26.9375L184.266 27.8036L184.272 27.8074L184.766 26.9375ZM203.916 28.5V29.5H205.477L204.824 28.0817L203.916 28.5ZM202.461 28.5L201.552 28.9176L201.82 29.5H202.461V28.5ZM199.023 17.875L199.932 17.4567L199.664 16.875H199.023V17.875ZM198.779 17.875V16.875H198.137L197.87 17.4588L198.779 17.875ZM193.916 28.5L193.007 28.0838L192.359 29.5H193.916V28.5ZM195.381 28.5V29.5H196.024L196.291 28.9148L195.381 28.5ZM198.906 20.7656L199.815 20.348L198.902 18.3628L197.996 20.3509L198.906 20.7656ZM214.961 24.9746L215.426 24.0894L214.588 23.6493L214.103 24.4613L214.961 24.9746ZM216.113 25.5801L217.005 26.0335L217.452 25.1539L216.578 24.6948L216.113 25.5801ZM212.49 27.2402L212.146 26.3015L212.142 26.3029L212.49 27.2402ZM208.096 26.3418L207.374 27.034L207.377 27.0369L208.096 26.3418ZM206.914 23.2949V22.2949H205.893L205.914 23.316L206.914 23.2949ZM216.465 23.2949V24.2949H217.474L217.465 23.286L216.465 23.2949ZM215.293 19.6621L214.507 20.2804L214.509 20.2829L215.293 19.6621ZM206.748 19.6133L207.535 20.2302L207.536 20.2291L206.748 19.6133ZM206.973 27.0742L206.213 27.725L206.215 27.7272L206.973 27.0742ZM213.135 28.4219L213.489 29.357L213.498 29.3537L213.135 28.4219ZM214.961 22.1133V23.1133H216.242L215.931 21.8707L214.961 22.1133ZM214.16 20.3652L213.376 20.9857L213.382 20.9928L214.16 20.3652ZM207.051 22.1133L206.09 21.8377L205.724 23.1133H207.051V22.1133ZM208.291 19.916L208.957 20.662L208.958 20.6609L208.291 19.916ZM219.023 28.5H218.023V29.5H219.023V28.5ZM223.906 22.748L223.532 21.8209L221.084 22.8102L223.573 23.6908L223.906 22.748ZM224.561 18.6758L223.836 19.365L223.84 19.3696L224.561 18.6758ZM219.023 17.875V16.875H218.023V17.875H219.023ZM220.4 19.0566V18.0566H219.4V19.0566H220.4ZM220.4 22.377H219.4V23.377H220.4V22.377ZM222.832 19.1348L222.626 20.1133L222.631 20.1144L222.832 19.1348ZM223.564 21.8008L222.803 21.1531L222.801 21.1548L223.564 21.8008ZM220.4 23.627V22.627H219.4V23.627H220.4ZM220.4 27.3477H219.4V28.3477H220.4V27.3477ZM224.102 26.6445L223.295 26.0532L223.291 26.0591L223.287 26.065L224.102 26.6445ZM223.34 27.2207L223.617 28.1814L223.624 28.1794L223.631 28.1774L223.34 27.2207ZM238.691 20.082L239.219 20.9313L240.054 20.4126L239.55 19.5691L238.691 20.082ZM237.607 20.7559L236.809 21.3579L237.359 22.0877L238.135 21.6051L237.607 20.7559ZM235.859 17.9238L235.546 18.8735L235.549 18.8744L235.859 17.9238ZM228.652 20.4141L227.79 19.907L227.789 19.909L228.652 20.4141ZM236.641 28.1484L237.08 29.0469L237.082 29.0456L236.641 28.1484ZM238.691 26.3711L239.523 26.9258L240.082 26.0885L239.241 25.5356L238.691 26.3711ZM237.607 25.6582L238.157 24.8227L237.394 24.3208L236.825 25.0355L237.607 25.6582ZM231.465 26.957L230.981 27.8324L230.985 27.8343L231.465 26.957ZM229.844 25.3652L228.975 25.8614L228.979 25.8676L229.844 25.3652ZM230.537 20.1406L229.841 19.4227L229.838 19.4254L230.537 20.1406ZM240.137 17.875V16.875H239.137V17.875H240.137ZM247.129 17.875H248.129V16.875H247.129V17.875ZM240.137 19.0566H239.137V20.0566H240.137V19.0566ZM242.939 19.0566H243.939V18.0566H242.939V19.0566ZM242.939 28.5H241.939V29.5H242.939V28.5ZM244.316 28.5V29.5H245.316V28.5H244.316ZM244.316 19.0566V18.0566H243.316V19.0566H244.316ZM247.129 19.0566V20.0566H248.129V19.0566H247.129ZM248.984 28.5H247.984V29.5H248.984V28.5ZM253.867 22.748L253.493 21.8209L251.044 22.8102L253.534 23.6908L253.867 22.748ZM254.521 18.6758L253.797 19.365L253.801 19.3696L254.521 18.6758ZM248.984 17.875V16.875H247.984V17.875H248.984ZM250.361 19.0566V18.0566H249.361V19.0566H250.361ZM250.361 22.377H249.361V23.377H250.361V22.377ZM252.793 19.1348L252.587 20.1133L252.592 20.1144L252.793 19.1348ZM253.525 21.8008L252.763 21.1531L252.762 21.1548L253.525 21.8008ZM250.361 23.627V22.627H249.361V23.627H250.361ZM250.361 27.3477H249.361V28.3477H250.361V27.3477ZM254.062 26.6445L253.256 26.0532L253.252 26.0591L253.248 26.065L254.062 26.6445ZM253.301 27.2207L253.578 28.1814L253.585 28.1794L253.592 28.1774L253.301 27.2207ZM268.926 17.875H269.926V16.875H268.926V17.875ZM268.926 28.5V29.5H269.926V28.5H268.926ZM267.578 17.875V16.875H266.578V17.875H267.578ZM267.578 19.8281L266.766 20.412L268.578 22.931V19.8281H267.578ZM265.713 18.1582L265.246 19.0426L265.249 19.0443L265.713 18.1582ZM259.453 27.1426L258.735 27.8389L258.74 27.8433L259.453 27.1426ZM265.645 28.2461L265.204 27.3484L265.201 27.35L265.645 28.2461ZM267.578 26.6738H268.578V23.8836L266.806 26.0386L267.578 26.6738ZM267.578 28.5H266.578V29.5H267.578V28.5ZM261.348 19.4863L261.847 20.353L261.853 20.3492L261.348 19.4863ZM266.445 20.1602L265.73 20.8588L265.733 20.8616L266.445 20.1602ZM267.119 25.4238L266.249 24.9315L266.245 24.9382L267.119 25.4238ZM261.357 26.957L260.845 27.8161L260.856 27.8221L261.357 26.957ZM259.805 21.0586L258.935 20.5651L258.931 20.5715L259.805 21.0586ZM35.4554 40.9133C38.612 40.3982 41.0143 37.6537 40.9999 34.3538L39 34.3625C39.01 36.6635 37.3344 38.5802 35.1333 38.9395L35.4554 40.9133ZM35.0001 41C35.2694 41 35.5319 40.9331 35.7652 40.8086L34.8236 39.0442C34.8774 39.0155 34.9379 39 35.0001 39V41ZM34.727 40.9796L34.911 40.996L35.0892 39.004L34.9052 38.9875L34.727 40.9796ZM34.4113 41C34.5729 40.9993 34.7333 40.9928 34.8923 40.9806L34.74 38.9864C34.6288 38.9949 34.5163 38.9995 34.4026 39L34.4113 41ZM10.5328 41H34.407V39H10.5328V41ZM-1 29.4672C-1 35.8365 4.16348 41 10.5328 41V39C5.26805 39 1 34.7319 1 29.4672H-1ZM10.2775 17.9372C4.02586 18.0732 -1 23.1833 -1 29.4672H1C1 24.2733 5.15433 20.0491 10.321 19.9368L10.2775 17.9372ZM9.58916 13.6945L9.30082 18.8815L11.2977 18.9925L11.5861 13.8055L9.58916 13.6945ZM10.0001 14.75H10.5876V12.75H10.0001V14.75ZM8.26779 14.1693C8.7667 14.5461 9.37482 14.7499 10 14.75L10.0002 12.75C9.80996 12.75 9.62488 12.6879 9.47304 12.5733L8.26779 14.1693ZM7.2352 12.6622C7.40638 13.2635 7.76888 13.7926 8.26779 14.1693L9.47304 12.5733C9.32119 12.4586 9.21087 12.2976 9.15877 12.1146L7.2352 12.6622ZM7.31918 10.8372C7.09351 11.4202 7.06402 12.0609 7.2352 12.6622L9.15877 12.1146C9.10667 11.9316 9.11564 11.7366 9.18433 11.5591L7.31918 10.8372ZM8.48583 9.43125C7.95443 9.76058 7.54486 10.2542 7.31918 10.8372L9.18433 11.5591C9.25301 11.3817 9.37766 11.2315 9.5394 11.1313L8.48583 9.43125ZM6.14254 7.77267L8.18004 10.8352L9.84519 9.72733L7.80769 6.66483L6.14254 7.77267ZM5.87514 6.86763C5.8728 7.18452 5.96318 7.49519 6.13514 7.76138L7.81508 6.67612C7.85477 6.73755 7.87562 6.80924 7.87509 6.88237L5.87514 6.86763ZM5.87511 0.625V6.875H7.87511V0.625H5.87511ZM6.35106 -0.524049C6.04632 -0.219303 5.87511 0.194022 5.87511 0.625H7.87511C7.87511 0.724458 7.8356 0.81984 7.76528 0.890165L6.35106 -0.524049ZM7.50011 -1C7.06914 -1 6.65581 -0.828795 6.35106 -0.524048L7.76528 0.890164C7.69495 0.960491 7.59957 1 7.50011 1V-1ZM10.6251 -1H7.50011V1H10.6251V-1ZM11.7742 -0.524049C11.4694 -0.828795 11.0561 -1 10.6251 -1V1C10.5257 1 10.4303 0.960491 10.3599 0.890166L11.7742 -0.524049ZM12.2501 0.625C12.2501 0.194026 12.0789 -0.2193 11.7742 -0.524049L10.3599 0.890165C10.2896 0.819837 10.2501 0.724454 10.2501 0.625H12.2501ZM12.2501 2.5V0.625H10.2501V2.5H12.2501ZM13.7501 1.5H11.2501V3.5H13.7501V1.5ZM12.7501 0.625V2.5H14.7501V0.625H12.7501ZM13.2261 -0.524049C12.9213 -0.2193 12.7501 0.194026 12.7501 0.625H14.7501C14.7501 0.724454 14.7106 0.819837 14.6403 0.890165L13.2261 -0.524049ZM14.3751 -1C13.9441 -1 13.5308 -0.828796 13.2261 -0.524049L14.6403 0.890166C14.57 0.960492 14.4746 1 14.3751 1V-1ZM18.1251 -1H14.3751V1H18.1251V-1ZM19.2742 -0.524049C18.9694 -0.828796 18.5561 -1 18.1251 -1V1C18.0257 1 17.9303 0.960492 17.8599 0.890166L19.2742 -0.524049ZM19.7501 0.625C19.7501 0.194026 19.5789 -0.2193 19.2742 -0.524049L17.8599 0.890165C17.7896 0.819837 17.7501 0.724454 17.7501 0.625H19.7501ZM19.7501 2.5V0.625H17.7501V2.5H19.7501ZM21.2501 1.5H18.7501V3.5H21.2501V1.5ZM20.2501 0.625V2.5H22.2501V0.625H20.2501ZM20.7261 -0.524049C20.4213 -0.2193 20.2501 0.194026 20.2501 0.625H22.2501C22.2501 0.724454 22.2106 0.819837 22.1403 0.890165L20.7261 -0.524049ZM21.8751 -1C21.4441 -1 21.0308 -0.828796 20.7261 -0.524049L22.1403 0.890166C22.07 0.960492 21.9746 1 21.8751 1V-1ZM25.6251 -1H21.8751V1H25.6251V-1ZM26.7742 -0.524049C26.4694 -0.828796 26.0561 -1 25.6251 -1V1C25.5257 1 25.4303 0.960492 25.3599 0.890166L26.7742 -0.524049ZM27.2501 0.625C27.2501 0.194026 27.0789 -0.2193 26.7742 -0.524049L25.3599 0.890165C25.2896 0.819837 25.2501 0.724454 25.2501 0.625H27.2501ZM27.2501 2.5V0.625H25.2501V2.5H27.2501ZM28.7501 1.5H26.2501V3.5H28.7501V1.5ZM27.7501 0.625V2.5H29.7501V0.625H27.7501ZM28.2261 -0.524049C27.9213 -0.2193 27.7501 0.194026 27.7501 0.625H29.7501C29.7501 0.724454 29.7106 0.819837 29.6403 0.890165L28.2261 -0.524049ZM29.3751 -1C28.9441 -1 28.5308 -0.828796 28.2261 -0.524049L29.6403 0.890166C29.57 0.960492 29.4746 1 29.3751 1V-1ZM32.5001 -1H29.3751V1H32.5001V-1ZM33.6492 -0.524049C33.3444 -0.828796 32.9311 -1 32.5001 -1V1C32.4007 1 32.3053 0.960492 32.2349 0.890166L33.6492 -0.524049ZM34.1251 0.625C34.1251 0.194018 33.9539 -0.219306 33.6492 -0.524049L32.2349 0.890165C32.1646 0.819843 32.1251 0.724462 32.1251 0.625H34.1251ZM34.1251 6.875V0.625H32.1251V6.875H34.1251ZM33.8488 7.77657C34.0266 7.51214 34.1226 7.20134 34.1251 6.88285L32.1251 6.86715C32.1257 6.7937 32.1479 6.72198 32.1889 6.66093L33.8488 7.77657ZM31.8139 10.8352L33.8514 7.77267L32.1863 6.66483L30.1488 9.72733L31.8139 10.8352ZM32.6739 10.8349C32.4481 10.2529 32.0388 9.76014 31.5081 9.43124L30.4546 11.1313C30.6161 11.2314 30.7407 11.3813 30.8094 11.5585L32.6739 10.8349ZM32.7601 12.6576C32.9301 12.0568 32.8998 11.417 32.6739 10.8349L30.8094 11.5585C30.8781 11.7356 30.8873 11.9303 30.8356 12.1132L32.7601 12.6576ZM31.7319 14.165C32.2292 13.7875 32.5902 13.2584 32.7601 12.6576L30.8356 12.1132C30.7839 12.296 30.6741 12.4571 30.5227 12.572L31.7319 14.165ZM30.0036 14.75C30.6279 14.7478 31.2346 14.5425 31.7319 14.165L30.5227 12.572C30.3713 12.6869 30.1867 12.7494 29.9967 12.75L30.0036 14.75ZM29.4126 14.75H30.0001V12.75H29.4126V14.75ZM31.1075 25.9006L30.411 13.693L28.4142 13.807L29.1108 26.0145L31.1075 25.9006ZM36.3705 28.3545C35.0084 26.1585 32.5985 24.8948 30.0841 24.9579L30.1342 26.9572C31.949 26.9117 33.6883 27.8245 34.671 29.4087L36.3705 28.3545ZM40.9999 34.3538C40.9863 31.2266 38.7856 28.5358 35.7233 27.9023L35.3182 29.8608C37.4548 30.3029 38.9904 32.1803 39 34.3625L40.9999 34.3538ZM28.1989 23.0859C25.7299 20.3061 21.6908 19.2272 18.0386 20.6919L18.783 22.5482C21.6274 21.4074 24.7772 22.2452 26.7036 24.4141L28.1989 23.0859ZM28.7439 22.75H27.4513V24.75H28.7439V22.75ZM27.1892 13.8055L27.7454 23.8055L29.7423 23.6945L29.1861 13.6945L27.1892 13.8055ZM11.8751 14.75H28.1876V12.75H11.8751V14.75ZM12.6293 17.5649L12.873 13.8149L10.8772 13.6851L10.6335 17.4351L12.6293 17.5649ZM16.2501 16.5H11.6314V18.5H16.2501V16.5ZM17.3992 16.976C17.0944 16.6712 16.6811 16.5 16.2501 16.5V18.5C16.1507 18.5 16.0553 18.4605 15.9849 18.3902L17.3992 16.976ZM17.8751 18.125C17.8751 17.694 17.7039 17.2807 17.3992 16.976L15.9849 18.3902C15.9146 18.3198 15.8751 18.2245 15.8751 18.125H17.8751ZM17.3992 19.274C17.7039 18.9693 17.8751 18.556 17.8751 18.125H15.8751C15.8751 18.0255 15.9146 17.9302 15.9849 17.8598L17.3992 19.274ZM16.2501 19.75C16.6811 19.75 17.0944 19.5788 17.3992 19.274L15.9849 17.8598C16.0553 17.7895 16.1507 17.75 16.2501 17.75V19.75ZM11.5626 19.75H16.2501V17.75H11.5626V19.75ZM12.5482 19.0379L12.5611 18.8053L10.5641 18.6947L10.5513 18.9273L12.5482 19.0379ZM18.5099 21.1736C16.6437 19.3533 14.2188 18.2356 11.6458 17.9872L11.4536 19.978C13.5752 20.1828 15.5747 21.1044 17.1134 22.6053L18.5099 21.1736ZM18.0379 20.6922C17.8103 20.7837 17.5855 20.8844 17.3644 20.995L18.2589 22.7838C18.4299 22.6983 18.605 22.6197 18.7837 22.5479L18.0379 20.6922ZM11.0001 3.125V1.25H9.00011V3.125H11.0001ZM10.8903 2.85983C10.9606 2.93016 11.0001 3.02555 11.0001 3.125H9.00011C9.00011 3.55597 9.17131 3.9693 9.47606 4.27405L10.8903 2.85983ZM10.6251 2.75C10.7246 2.75 10.82 2.78951 10.8903 2.85983L9.47606 4.27405C9.78081 4.5788 10.1941 4.75 10.6251 4.75V2.75ZM14.3751 2.75H10.6251V4.75H14.3751V2.75ZM14.1099 2.85983C14.1803 2.78951 14.2757 2.75 14.3751 2.75V4.75C14.8061 4.75 15.2194 4.5788 15.5242 4.27405L14.1099 2.85983ZM14.0001 3.125C14.0001 3.02555 14.0396 2.93016 14.1099 2.85983L15.5242 4.27405C15.8289 3.9693 16.0001 3.55597 16.0001 3.125H14.0001ZM14.0001 1.25V3.125H16.0001V1.25H14.0001ZM17.5001 0.25H15.0001V2.25H17.5001V0.25ZM18.5001 3.125V1.25H16.5001V3.125H18.5001ZM18.3903 2.85983C18.4606 2.93016 18.5001 3.02555 18.5001 3.125H16.5001C16.5001 3.55597 16.6713 3.9693 16.9761 4.27405L18.3903 2.85983ZM18.1251 2.75C18.2246 2.75 18.32 2.78951 18.3903 2.85983L16.9761 4.27405C17.2808 4.5788 17.6941 4.75 18.1251 4.75V2.75ZM21.8751 2.75H18.1251V4.75H21.8751V2.75ZM21.6099 2.85983C21.6803 2.78951 21.7757 2.75 21.8751 2.75V4.75C22.3061 4.75 22.7194 4.5788 23.0242 4.27405L21.6099 2.85983ZM21.5001 3.125C21.5001 3.02555 21.5396 2.93016 21.6099 2.85983L23.0242 4.27405C23.3289 3.9693 23.5001 3.55597 23.5001 3.125H21.5001ZM21.5001 1.25V3.125H23.5001V1.25H21.5001ZM25.0001 0.25H22.5001V2.25H25.0001V0.25ZM26.0001 3.125V1.25H24.0001V3.125H26.0001ZM25.8903 2.85983C25.9606 2.93016 26.0001 3.02555 26.0001 3.125H24.0001C24.0001 3.55597 24.1713 3.9693 24.4761 4.27405L25.8903 2.85983ZM25.6251 2.75C25.7246 2.75 25.82 2.78951 25.8903 2.85983L24.4761 4.27405C24.7808 4.5788 25.1941 4.75 25.6251 4.75V2.75ZM29.3751 2.75H25.6251V4.75H29.3751V2.75ZM29.1099 2.85983C29.1803 2.78951 29.2757 2.75 29.3751 2.75V4.75C29.8061 4.75 30.2194 4.5788 30.5242 4.27405L29.1099 2.85983ZM29.0001 3.125C29.0001 3.02555 29.0396 2.93016 29.1099 2.85983L30.5242 4.27405C30.8289 3.9693 31.0001 3.55597 31.0001 3.125H29.0001ZM29.0001 1.25V3.125H31.0001V1.25H29.0001ZM31.8751 0.25H30.0001V2.25H31.8751V0.25ZM32.8751 6.25V1.25H30.8751V6.25H32.8751ZM8.12511 7.25H31.8751V5.25H8.12511V7.25ZM7.12511 1.25V6.25H9.12511V1.25H7.12511ZM10.0001 0.25H8.12511V2.25H10.0001V0.25ZM30.4943 10.5552L32.1631 8.05518L30.4996 6.94482L28.8309 9.44482L30.4943 10.5552ZM10.3376 11H29.6626V9H10.3376V11ZM7.83713 8.05518L9.50588 10.5552L11.1693 9.44482L9.50059 6.94482L7.83713 8.05518ZM31.3314 6.5H8.66886V8.5H31.3314V6.5ZM8.85106 10.726C8.54632 11.0307 8.37511 11.444 8.37511 11.875H10.3751C10.3751 11.9745 10.3356 12.0698 10.2653 12.1402L8.85106 10.726ZM10.0001 10.25C9.56914 10.25 9.15581 10.4212 8.85106 10.726L10.2653 12.1402C10.195 12.2105 10.0996 12.25 10.0001 12.25V10.25ZM30.0001 10.25H10.0001V12.25H30.0001V10.25ZM31.1492 10.726C30.8444 10.4212 30.4311 10.25 30.0001 10.25V12.25C29.9007 12.25 29.8053 12.2105 29.7349 12.1402L31.1492 10.726ZM31.6251 11.875C31.6251 11.444 31.4539 11.0307 31.1492 10.726L29.7349 12.1402C29.6646 12.0698 29.6251 11.9745 29.6251 11.875H31.6251ZM31.1492 13.024C31.4539 12.7193 31.6251 12.306 31.6251 11.875H29.6251C29.6251 11.7755 29.6646 11.6802 29.7349 11.6098L31.1492 13.024ZM30.0001 13.5C30.4311 13.5 30.8444 13.3288 31.1492 13.024L29.7349 11.6098C29.8053 11.5395 29.9007 11.5 30.0001 11.5V13.5ZM10.0001 13.5H30.0001V11.5H10.0001V13.5ZM8.85106 13.024C9.15581 13.3288 9.56914 13.5 10.0001 13.5V11.5C10.0996 11.5 10.195 11.5395 10.2653 11.6098L8.85106 13.024ZM8.37511 11.875C8.37511 12.306 8.54632 12.7193 8.85106 13.024L10.2653 11.6098C10.3356 11.6802 10.3751 11.7755 10.3751 11.875H8.37511ZM52.7988 16.1838C53.627 15.222 54.6016 14.7734 55.7812 14.7734V12.7734C53.9921 12.7734 52.4732 13.4968 51.2832 14.8787L52.7988 16.1838ZM53.6926 15.6636L52.7063 14.7847L51.3757 16.2778L52.3621 17.1567L53.6926 15.6636ZM55.7422 14.1016C54.4415 14.1016 53.2922 14.701 52.3096 15.7138L53.7451 17.1065C54.4552 16.3745 55.1158 16.1016 55.7422 16.1016V14.1016ZM58.2804 15.1026C57.5925 14.424 56.7193 14.1016 55.7422 14.1016V16.1016C56.2494 16.1016 56.6002 16.2544 56.8758 16.5264L58.2804 15.1026ZM59.3105 17.7188C59.3105 16.6996 58.9912 15.7847 58.2707 15.0931L56.8856 16.5358C57.1417 16.7817 57.3105 17.1363 57.3105 17.7188H59.3105ZM55.1172 21.3066C56.2908 21.3066 57.3564 21.0731 58.1418 20.4366C58.9674 19.7675 59.3105 18.7976 59.3105 17.7188H57.3105C57.3105 18.3651 57.1214 18.6892 56.8826 18.8828C56.6035 19.1089 56.0725 19.3066 55.1172 19.3066V21.3066ZM54.6387 21.3066H55.1172V19.3066H54.6387V21.3066ZM55.6387 21.5664V20.3066H53.6387V21.5664H55.6387ZM54.8828 20.5664H54.6387V22.5664H54.8828V20.5664ZM56.8293 20.6802C56.3752 20.5976 55.7077 20.5664 54.8828 20.5664V22.5664C55.6986 22.5664 56.2094 22.6003 56.4715 22.6479L56.8293 20.6802ZM58.312 21.284C57.837 20.9881 57.3413 20.7733 56.8293 20.6802L56.4715 22.6479C56.6756 22.685 56.9352 22.7827 57.2545 22.9816L58.312 21.284ZM59.5839 22.6395C59.2845 22.0769 58.8547 21.6222 58.312 21.284L57.2545 22.9816C57.506 23.1383 57.6882 23.3346 57.8184 23.5792L59.5839 22.6395ZM60.0332 24.5156C60.0332 23.837 59.8933 23.1943 59.5747 22.6225L57.8277 23.5962C57.9517 23.8187 58.0332 24.1135 58.0332 24.5156H60.0332ZM58.7133 27.6106C59.6343 26.8494 60.0332 25.7593 60.0332 24.5156H58.0332C58.0332 25.3162 57.7941 25.7756 57.4391 26.0691L58.7133 27.6106ZM55.752 28.6309C56.8708 28.6309 57.8775 28.3014 58.7133 27.6106L57.4391 26.0691C56.9988 26.433 56.456 26.6309 55.752 26.6309V28.6309ZM53.5185 28.1251C54.228 28.4598 54.9756 28.6309 55.752 28.6309V26.6309C55.2783 26.6309 54.8215 26.5284 54.3721 26.3163L53.5185 28.1251ZM51.2532 25.8982C51.9459 26.9169 52.6894 27.7245 53.5103 28.1211L54.3803 26.3203C54.0424 26.157 53.5424 25.7081 52.907 24.7736L51.2532 25.8982ZM51.4735 26.8524L52.5868 26.1981L51.5734 24.4738L50.4601 25.1281L51.4735 26.8524ZM53.6 27.3672C53.0384 27.0477 52.4333 26.4451 51.8136 25.4584L50.12 26.5221C50.8414 27.6708 51.6621 28.5656 52.6109 29.1055L53.6 27.3672ZM55.791 27.8711C54.9016 27.8711 54.1795 27.6891 53.5911 27.3622L52.6198 29.1105C53.5549 29.6299 54.6232 29.8711 55.791 29.8711V27.8711ZM58.5833 26.9505C57.9682 27.5277 57.079 27.8711 55.791 27.8711V29.8711C57.4458 29.8711 58.8742 29.4202 59.9519 28.4089L58.5833 26.9505ZM59.5371 24.5352C59.5371 25.5981 59.2026 26.3693 58.5833 26.9505L59.9519 28.4089C61.0252 27.4016 61.5371 26.0763 61.5371 24.5352H59.5371ZM57.3998 21.6819C58.1964 21.9283 58.707 22.2897 59.0252 22.7162C59.3424 23.1413 59.5371 23.7229 59.5371 24.5352H61.5371C61.5371 23.3942 61.2582 22.3646 60.6281 21.5201C59.9991 20.6771 59.0888 20.1108 57.9908 19.7712L57.3998 21.6819ZM58.8535 17.4355C58.8535 18.0388 58.7138 18.4974 58.4777 18.8574C58.2402 19.2195 57.8612 19.5486 57.2763 19.8186L58.1144 21.6345C58.9682 21.2405 59.6683 20.689 60.1502 19.9541C60.6336 19.2171 60.8535 18.3623 60.8535 17.4355H58.8535ZM58.04 15.549C58.5796 16.0247 58.8535 16.6239 58.8535 17.4355H60.8535C60.8535 16.0857 60.3592 14.9272 59.3624 14.0486L58.04 15.549ZM55.7812 14.7734C56.7527 14.7734 57.4779 15.0489 58.0364 15.5459L59.3659 14.0518C58.388 13.1816 57.1666 12.7734 55.7812 12.7734V14.7734ZM72.7305 17.875V28.5H74.7305V17.875H72.7305ZM72.3828 18.875H73.7305V16.875H72.3828V18.875ZM73.3828 19.8281V17.875H71.3828V19.8281H73.3828ZM70.0542 19.0444C70.6073 19.3336 71.1152 19.7784 71.571 20.4121L73.1946 19.2442C72.5827 18.3935 71.8471 17.725 70.981 17.2721L70.0542 19.0444ZM68.1543 18.6016C68.8802 18.6016 69.5052 18.7546 70.0508 19.0426L70.9843 17.2738C70.1237 16.8196 69.1732 16.6016 68.1543 16.6016V18.6016ZM64.9887 19.9353C65.8776 19.0356 66.9148 18.6016 68.1543 18.6016V16.6016C66.373 16.6016 64.8256 17.2547 63.566 18.5296L64.9887 19.9353ZM63.666 23.1582C63.666 21.8911 64.0996 20.8351 64.9887 19.9353L63.566 18.5296C62.3066 19.8042 61.666 21.3654 61.666 23.1582H63.666ZM64.9755 26.4462C64.1004 25.5443 63.666 24.468 63.666 23.1582H61.666C61.666 24.9734 62.2928 26.5534 63.5401 27.8389L64.9755 26.4462ZM68.1152 27.7734C66.8837 27.7734 65.8538 27.3405 64.9713 26.4419L63.5443 27.8432C64.7973 29.1191 66.339 29.7734 68.1152 29.7734V27.7734ZM70.0053 27.35C69.443 27.6286 68.8184 27.7734 68.1152 27.7734V29.7734C69.1048 29.7734 70.0361 29.5667 70.8931 29.1422L70.0053 27.35ZM71.6105 26.0386C71.1163 26.6395 70.5809 27.0674 70.0085 27.3484L70.8899 29.1438C71.7498 28.7216 72.5035 28.1014 73.1552 27.309L71.6105 26.0386ZM73.3828 28.5V26.6738H71.3828V28.5H73.3828ZM73.7305 27.5H72.3828V29.5H73.7305V27.5ZM68.2617 17.9199C67.326 17.9199 66.4478 18.1542 65.6468 18.6235L66.6578 20.3492C67.1459 20.0632 67.674 19.9199 68.2617 19.9199V17.9199ZM71.9655 19.4616C70.9647 18.4366 69.7083 17.9199 68.2617 17.9199V19.9199C69.1849 19.9199 69.9207 20.2301 70.5345 20.8588L71.9655 19.4616ZM73.4707 23.2461C73.4707 21.7708 72.9726 20.4848 71.9627 19.4587L70.5373 20.8616C71.155 21.4892 71.4707 22.2605 71.4707 23.2461H73.4707ZM72.7942 25.9162C73.2513 25.1081 73.4707 24.2099 73.4707 23.2461H71.4707C71.4707 23.8968 71.3255 24.4505 71.0534 24.9315L72.7942 25.9162ZM70.8715 27.8284C71.6957 27.3643 72.3461 26.7228 72.798 25.9095L71.0497 24.9382C70.7854 25.4139 70.4071 25.7946 69.8902 26.0857L70.8715 27.8284ZM68.252 28.5234C69.1775 28.5234 70.0555 28.2879 70.8715 27.8284L69.8902 26.0857C69.365 26.3814 68.8238 26.5234 68.252 26.5234V28.5234ZM65.6604 27.8221C66.4616 28.2868 67.331 28.5234 68.252 28.5234V26.5234C67.6886 26.5234 67.1647 26.3825 66.6638 26.092L65.6604 27.8221ZM63.7473 25.8453C64.2131 26.6742 64.8486 27.3383 65.6502 27.8161L66.6741 26.098C66.1866 25.8075 65.7934 25.404 65.4909 24.8656L63.7473 25.8453ZM63.043 23.207C63.043 24.1355 63.2833 25.0195 63.7473 25.8453L65.4909 24.8656C65.1867 24.3242 65.043 23.7759 65.043 23.207H63.043ZM63.736 20.5715C63.2777 21.3934 63.043 22.2767 63.043 23.207H65.043C65.043 22.627 65.1859 22.078 65.4827 21.5457L63.736 20.5715ZM65.6534 18.6197C64.8468 19.0841 64.2075 19.7404 63.7396 20.5652L65.4792 21.552C65.7795 21.0226 66.1688 20.6307 66.6513 20.353L65.6534 18.6197ZM85.9824 13.5488V14.8574H87.9824V13.5488H85.9824ZM85.203 14.6852C85.9427 14.665 86.5871 14.6175 87.1275 14.5382L86.8373 12.5594C86.4012 12.6234 85.8411 12.667 85.1485 12.6859L85.203 14.6852ZM80.6868 15.0887C81.3987 14.8916 82.8671 14.7441 85.201 14.6852L85.1506 12.6859C82.836 12.7442 81.1338 12.8897 80.153 13.1613L80.6868 15.0887ZM78.9589 15.8848C79.3647 15.5729 79.9286 15.2987 80.6868 15.0887L80.153 13.1613C79.2186 13.42 78.4022 13.7903 77.7404 14.2988L78.9589 15.8848ZM77.8376 17.5194C78.2191 16.6612 78.6087 16.1538 78.9589 15.8848L77.7404 14.2988C77.0229 14.8501 76.4619 15.6904 76.01 16.7071L77.8376 17.5194ZM77.3086 21.2344C77.3086 19.4647 77.5127 18.2569 77.839 17.5164L76.0087 16.7101C75.5146 17.8316 75.3086 19.3713 75.3086 21.2344H77.3086ZM78.7303 26.276C77.8519 25.3316 77.3086 23.725 77.3086 21.2344H75.3086C75.3086 23.952 75.8916 26.1606 77.2658 27.6381L78.7303 26.276ZM82.1191 27.7734C80.7821 27.7734 79.6717 27.2882 78.7303 26.276L77.2658 27.6381C78.577 29.0478 80.214 29.7734 82.1191 29.7734V27.7734ZM85.3544 26.4387C84.4967 27.3281 83.4422 27.7734 82.1191 27.7734V29.7734C83.9601 29.7734 85.5424 29.125 86.7941 27.8269L85.3544 26.4387ZM86.6562 23.2168C86.6562 24.4743 86.2297 25.531 85.3544 26.4387L86.7941 27.8269C88.0281 26.5472 88.6562 24.9931 88.6562 23.2168H86.6562ZM85.3426 19.9538C86.2258 20.8749 86.6562 21.9454 86.6562 23.2168H88.6562C88.6562 21.4283 88.0255 19.8621 86.7863 18.5696L85.3426 19.9538ZM82.1191 18.6016C83.4305 18.6016 84.481 19.0496 85.3405 19.9516L86.7884 18.5719C85.5386 17.2603 83.9588 16.6016 82.1191 16.6016V18.6016ZM79.8403 19.2842C80.5273 18.828 81.2785 18.6016 82.1191 18.6016V16.6016C80.8895 16.6016 79.7526 16.9416 78.7339 17.6181L79.8403 19.2842ZM78.4175 21.4185C78.7386 20.3652 79.2326 19.6909 79.8433 19.2822L78.7309 17.6201C77.6489 18.3442 76.9255 19.4539 76.5044 20.8354L78.4175 21.4185ZM76.6018 19.5417L76.4651 21.0358L78.4568 21.2181L78.5935 19.7239L76.6018 19.5417ZM77.2821 17.0126C76.913 17.7816 76.6904 18.6267 76.6023 19.5365L78.593 19.7291C78.6612 19.0244 78.8292 18.4111 79.0851 17.878L77.2821 17.0126ZM78.7875 15.1574C78.1466 15.5997 77.6561 16.2415 77.2839 17.0088L79.0833 17.8818C79.3491 17.334 79.6399 16.9992 79.9235 16.8035L78.7875 15.1574ZM80.8004 14.3418C80.0543 14.4753 79.3741 14.7443 78.7797 15.1629L79.9312 16.7981C80.2613 16.5656 80.6619 16.3984 81.1527 16.3105L80.8004 14.3418ZM83.5987 14.0924C82.4356 14.132 81.4913 14.2122 80.7923 14.3433L81.1609 16.309C81.7118 16.2057 82.5383 16.1297 83.6669 16.0912L83.5987 14.0924ZM86.8148 13.8716C86.2398 13.9693 85.1858 14.0466 83.604 14.0922L83.6616 16.0914C85.2439 16.0458 86.423 15.9669 87.15 15.8433L86.8148 13.8716ZM87.2695 23.2461C87.2695 21.8078 86.7582 20.5459 85.7571 19.513L84.321 20.905C84.9605 21.5648 85.2695 22.3276 85.2695 23.2461H87.2695ZM85.7993 26.9369C86.7768 25.9193 87.2695 24.6699 87.2695 23.2461H85.2695C85.2695 24.1661 84.968 24.9153 84.357 25.5514L85.7993 26.9369ZM82.1191 28.4746C83.5635 28.4746 84.8144 27.9625 85.7994 26.9368L84.3569 25.5515C83.7663 26.1664 83.0446 26.4746 82.1191 26.4746V28.4746ZM78.4417 26.9398C79.4311 27.9615 80.6797 28.4746 82.1191 28.4746V26.4746C81.2018 26.4746 80.4778 26.1674 79.8786 25.5485L78.4417 26.9398ZM76.9785 23.2461C76.9785 24.6674 77.4661 25.9158 78.4362 26.9339L79.8842 25.5543C79.2787 24.9188 78.9785 24.1686 78.9785 23.2461H76.9785ZM78.4909 19.513C77.4898 20.5459 76.9785 21.8078 76.9785 23.2461H78.9785C78.9785 22.3276 79.2875 21.5648 79.9271 20.905L78.4909 19.513ZM82.1191 17.9395C80.7132 17.9395 79.4885 18.4837 78.4909 19.513L79.9271 20.905C80.5701 20.2415 81.2855 19.9395 82.1191 19.9395V17.9395ZM85.7571 19.513C84.7583 18.4824 83.5298 17.9395 82.1191 17.9395V19.9395C82.961 19.9395 83.6792 20.2428 84.321 20.905L85.7571 19.513ZM91.5527 23.084H92.8516V21.084H91.5527V23.084ZM90.5527 17.875V22.084H92.5527V17.875H90.5527ZM90.1953 18.875H91.5527V16.875H90.1953V18.875ZM91.1953 28.5V17.875H89.1953V28.5H91.1953ZM93.7305 27.5H90.1953V29.5H93.7305V27.5ZM95.8028 26.8689C95.4468 27.2287 94.8225 27.5 93.7305 27.5V29.5C95.1254 29.5 96.3566 29.1528 97.2245 28.2756L95.8028 26.8689ZM96.4316 25.3262C96.4316 25.9362 96.2287 26.434 95.7992 26.8726L97.2282 28.2719C98.0226 27.4606 98.4316 26.4609 98.4316 25.3262H96.4316ZM96.0025 24.0196C96.2871 24.3917 96.4316 24.8143 96.4316 25.3262H98.4316C98.4316 24.3928 98.153 23.5393 97.5912 22.8047L96.0025 24.0196ZM95.0156 23.2916C95.3584 23.3869 95.687 23.6021 95.9991 24.0151L97.5946 22.8091C97.0604 22.1023 96.3799 21.5949 95.5508 21.3646L95.0156 23.2916ZM92.8516 23.084C93.8501 23.084 94.5567 23.1642 95.0156 23.2916L95.5508 21.3646C94.8378 21.1665 93.9233 21.084 92.8516 21.084V23.084ZM90.6016 23.334V27.3477H92.6016V23.334H90.6016ZM92.7637 22.334H91.6016V24.334H92.7637V22.334ZM95.13 22.6138C94.5637 22.399 93.7263 22.334 92.7637 22.334V24.334C93.7282 24.334 94.2319 24.4122 94.4207 24.4838L95.13 22.6138ZM96.5224 23.8219C96.2112 23.2513 95.7332 22.8387 95.1248 22.6118L94.426 24.4858C94.5858 24.5454 94.6872 24.6341 94.7666 24.7796L96.5224 23.8219ZM96.9473 25.3945C96.9473 24.8334 96.7927 24.3012 96.5157 23.8098L94.7734 24.7918C94.9 25.0165 94.9473 25.2135 94.9473 25.3945H96.9473ZM93.1738 28.3477C94.1851 28.3477 95.1223 28.1751 95.8297 27.677C96.6012 27.1337 96.9473 26.3141 96.9473 25.3945H94.9473C94.9473 25.7771 94.8311 25.934 94.6781 26.0418C94.461 26.1947 94.0115 26.3477 93.1738 26.3477V28.3477ZM91.6016 28.3477H93.1738V26.3477H91.6016V28.3477ZM99.3164 18.875H100.693V16.875H99.3164V18.875ZM100.316 28.5V17.875H98.3164V28.5H100.316ZM100.693 27.5H99.3164V29.5H100.693V27.5ZM99.6934 17.875V28.5H101.693V17.875H99.6934ZM102.422 18.875H109.414V16.875H102.422V18.875ZM103.422 19.0566V17.875H101.422V19.0566H103.422ZM105.225 18.0566H102.422V20.0566H105.225V18.0566ZM106.225 28.5V19.0566H104.225V28.5H106.225ZM106.602 27.5H105.225V29.5H106.602V27.5ZM105.602 19.0566V28.5H107.602V19.0566H105.602ZM109.414 18.0566H106.602V20.0566H109.414V18.0566ZM108.414 17.875V19.0566H110.414V17.875H108.414ZM112.627 23.084H113.926V21.084H112.627V23.084ZM111.627 17.875V22.084H113.627V17.875H111.627ZM111.27 18.875H112.627V16.875H111.27V18.875ZM112.27 28.5V17.875H110.27V28.5H112.27ZM114.805 27.5H111.27V29.5H114.805V27.5ZM116.877 26.8689C116.521 27.2287 115.897 27.5 114.805 27.5V29.5C116.2 29.5 117.431 29.1528 118.299 28.2756L116.877 26.8689ZM117.506 25.3262C117.506 25.9362 117.303 26.434 116.873 26.8726L118.302 28.2719C119.097 27.4606 119.506 26.4609 119.506 25.3262H117.506ZM117.077 24.0196C117.361 24.3917 117.506 24.8143 117.506 25.3262H119.506C119.506 24.3928 119.227 23.5393 118.665 22.8047L117.077 24.0196ZM116.09 23.2916C116.433 23.3869 116.761 23.6021 117.073 24.0151L118.669 22.8091C118.135 22.1023 117.454 21.5949 116.625 21.3646L116.09 23.2916ZM113.926 23.084C114.924 23.084 115.631 23.1642 116.09 23.2916L116.625 21.3646C115.912 21.1665 114.998 21.084 113.926 21.084V23.084ZM111.676 23.334V27.3477H113.676V23.334H111.676ZM113.838 22.334H112.676V24.334H113.838V22.334ZM116.204 22.6138C115.638 22.399 114.8 22.334 113.838 22.334V24.334C114.802 24.334 115.306 24.4122 115.495 24.4838L116.204 22.6138ZM117.597 23.8219C117.285 23.2513 116.807 22.8387 116.199 22.6118L115.5 24.4858C115.66 24.5454 115.761 24.6341 115.841 24.7796L117.597 23.8219ZM118.021 25.3945C118.021 24.8334 117.867 24.3012 117.59 23.8098L115.848 24.7918C115.974 25.0165 116.021 25.2135 116.021 25.3945H118.021ZM114.248 28.3477C115.259 28.3477 116.197 28.1751 116.904 27.677C117.675 27.1337 118.021 26.3141 118.021 25.3945H116.021C116.021 25.7771 115.905 25.934 115.752 26.0418C115.535 26.1947 115.086 26.3477 114.248 26.3477V28.3477ZM112.676 28.3477H114.248V26.3477H112.676V28.3477ZM120.391 18.875H121.768V16.875H120.391V18.875ZM121.391 28.5V17.875H119.391V28.5H121.391ZM121.768 27.5H120.391V29.5H121.768V27.5ZM120.768 17.875V28.5H122.768V17.875H120.768ZM133.168 25.8599L134.32 26.4653L135.25 24.6948L134.098 24.0894L133.168 25.8599ZM133.128 27.2417C133.602 26.8283 134.053 26.2204 134.491 25.4879L132.775 24.4613C132.379 25.122 132.056 25.5233 131.813 25.7349L133.128 27.2417ZM131.507 28.179C132.119 27.9544 132.665 27.6459 133.128 27.2417L131.813 25.7349C131.56 25.9557 131.234 26.1485 130.818 26.3015L131.507 28.179ZM129.59 28.5234C130.249 28.5234 130.892 28.4077 131.511 28.1775L130.814 26.3029C130.417 26.4504 130.011 26.5234 129.59 26.5234V28.5234ZM126.049 27.0369C127.003 28.0243 128.206 28.5234 129.59 28.5234V26.5234C128.734 26.5234 128.055 26.2348 127.486 25.6467L126.049 27.0369ZM124.586 23.316C124.617 24.77 125.089 26.0359 126.046 27.034L127.489 25.6496C126.923 25.0592 126.607 24.2938 126.586 23.2739L124.586 23.316ZM135.137 22.2949H125.586V24.2949H135.137V22.2949ZM133.181 20.2829C133.788 21.0497 134.125 22.0343 134.137 23.3039L136.137 23.286C136.122 21.6519 135.678 20.2146 134.749 19.0413L133.181 20.2829ZM129.629 18.6016C131.145 18.6016 132.295 19.1575 133.179 20.2804L134.751 19.0438C133.473 17.4193 131.733 16.6016 129.629 16.6016V18.6016ZM126.208 20.2291C127.059 19.1395 128.167 18.6016 129.629 18.6016V16.6016C127.575 16.6016 125.877 17.4048 124.632 18.9975L126.208 20.2291ZM125.18 23.2168C125.18 22.0915 125.519 21.1078 126.207 20.2302L124.633 18.9963C123.667 20.2281 123.18 21.6468 123.18 23.2168H125.18ZM126.404 26.4234C125.575 25.4559 125.18 24.3983 125.18 23.2168H123.18C123.18 24.8999 123.761 26.4138 124.885 27.725L126.404 26.4234ZM129.707 27.7734C128.215 27.7734 127.158 27.2979 126.402 26.4213L124.887 27.7272C126.085 29.1162 127.735 29.7734 129.707 29.7734V27.7734ZM131.452 27.4868C130.965 27.6712 130.389 27.7734 129.707 27.7734V29.7734C130.588 29.7734 131.411 29.6413 132.161 29.357L131.452 27.4868ZM132.799 26.6414C132.395 27.0138 131.944 27.295 131.444 27.4901L132.17 29.3537C132.906 29.0669 133.569 28.6515 134.154 28.1125L132.799 26.6414ZM133.894 25.1266C133.558 25.7871 133.188 26.2829 132.799 26.6414L134.154 28.1125C134.754 27.5596 135.257 26.8574 135.676 26.0335L133.894 25.1266ZM134.603 21.8707C134.397 21.0465 134.079 20.3185 133.611 19.7377L132.053 20.9928C132.288 21.2844 132.504 21.7217 132.663 22.3558L134.603 21.8707ZM125.723 23.1133H133.633V21.1133H125.723V23.1133ZM126.297 19.1701C125.565 19.8238 125.074 20.7469 124.761 21.8377L126.684 22.3888C126.931 21.5265 127.267 20.9848 127.629 20.662L126.297 19.1701ZM129.648 17.9102C128.37 17.9102 127.235 18.3298 126.296 19.1711L127.63 20.6609C128.188 20.1611 128.843 19.9102 129.648 19.9102V17.9102ZM131.877 18.4041C131.172 18.0756 130.426 17.9102 129.648 17.9102V19.9102C130.134 19.9102 130.592 20.0116 131.033 20.217L131.877 18.4041ZM133.616 19.7448C133.162 19.1706 132.572 18.7278 131.877 18.4041L131.033 20.217C131.484 20.4271 131.812 20.6874 132.048 20.9856L133.616 19.7448ZM143.467 15.1348H144.932V13.1348H143.467V15.1348ZM144.467 28.5V14.1348H142.467V28.5H144.467ZM144.932 27.5H143.467V29.5H144.932V27.5ZM143.932 21.8008V28.5H145.932V21.8008H143.932ZM151.968 27.8144L145.66 21.1152L144.204 22.4863L150.512 29.1856L151.968 27.8144ZM153.145 27.5H151.24V29.5H153.145V27.5ZM144.974 21.2648L152.416 29.1847L153.873 27.8153L146.432 19.8953L144.974 21.2648ZM151.925 13.4038L145.021 19.8491L146.386 21.3111L153.29 14.8658L151.925 13.4038ZM150.664 15.1348H152.607V13.1348H150.664V15.1348ZM145.617 20.2539L151.349 14.8633L149.979 13.4063L144.247 18.7969L145.617 20.2539ZM143.932 14.1348V19.5254H145.932V14.1348H143.932ZM160.088 18.6016C161.447 18.6016 162.53 19.0799 163.41 20.0506L164.891 18.7072C163.623 17.3081 161.997 16.6016 160.088 16.6016V18.6016ZM156.758 20.0583C157.638 19.0826 158.723 18.6016 160.088 18.6016V16.6016C158.171 16.6016 156.542 17.3119 155.273 18.719L156.758 20.0583ZM155.551 23.2168C155.551 21.9904 155.949 20.954 156.758 20.0591L155.274 18.7182C154.129 19.9848 153.551 21.5005 153.551 23.2168H155.551ZM156.828 26.4346C155.966 25.5018 155.551 24.4438 155.551 23.2168H153.551C153.551 24.9586 154.164 26.4982 155.359 27.7919L156.828 26.4346ZM160.088 27.7734C158.714 27.7734 157.655 27.3187 156.824 26.4302L155.363 27.7964C156.603 29.1215 158.206 29.7734 160.088 29.7734V27.7734ZM163.33 26.4325C162.505 27.3197 161.454 27.7734 160.088 27.7734V29.7734C161.964 29.7734 163.562 29.1204 164.795 27.7941L163.33 26.4325ZM164.615 23.2168C164.615 24.4419 164.198 25.4991 163.33 26.4323L164.795 27.7942C165.997 26.5009 166.615 24.9605 166.615 23.2168H164.615ZM163.408 20.0494C164.216 20.9433 164.615 21.9827 164.615 23.2168H166.615C166.615 21.4952 166.038 19.9759 164.892 18.7085L163.408 20.0494ZM160.088 17.9395C158.675 17.9395 157.445 18.4762 156.45 19.5033L157.886 20.8951C158.518 20.2426 159.235 19.9395 160.088 19.9395V17.9395ZM163.716 19.5033C162.722 18.4775 161.496 17.9395 160.088 17.9395V19.9395C160.932 19.9395 161.646 20.2413 162.28 20.8951L163.716 19.5033ZM165.229 23.2461C165.229 21.7979 164.719 20.5302 163.713 19.5005L162.283 20.898C162.918 21.5479 163.229 22.3115 163.229 23.2461H165.229ZM164.545 25.8824C165 25.0677 165.229 24.1833 165.229 23.2461H163.229C163.229 23.8453 163.086 24.3933 162.799 24.9067L164.545 25.8824ZM162.668 27.8035C163.463 27.3448 164.09 26.6967 164.545 25.8824L162.799 24.9067C162.512 25.4205 162.136 25.801 161.668 26.0715L162.668 27.8035ZM160.088 28.4746C161.009 28.4746 161.873 28.2543 162.661 27.8074L161.675 26.0676C161.2 26.3369 160.677 26.4746 160.088 26.4746V28.4746ZM157.515 27.8074C158.303 28.2543 159.167 28.4746 160.088 28.4746V26.4746C159.498 26.4746 158.976 26.3369 158.501 26.0676L157.515 27.8074ZM155.631 25.8824C156.086 26.6967 156.713 27.3448 157.508 27.8035L158.508 26.0715C158.039 25.801 157.664 25.4205 157.377 24.9067L155.631 25.8824ZM154.947 23.2461C154.947 24.1833 155.176 25.0677 155.631 25.8824L157.377 24.9067C157.09 24.3933 156.947 23.8453 156.947 23.2461H154.947ZM156.45 19.5033C155.452 20.5336 154.947 21.8004 154.947 23.2461H156.947C156.947 22.309 157.257 21.5445 157.886 20.8951L156.45 19.5033ZM168.184 18.875H169.541V16.875H168.184V18.875ZM169.184 32.3867V17.875H167.184V32.3867H169.184ZM169.541 31.3867H168.184V33.3867H169.541V31.3867ZM168.541 26.6738V32.3867H170.541V26.6738H168.541ZM171.909 27.35C171.342 27.0694 170.809 26.6412 170.313 26.0386L168.769 27.309C169.419 28.0997 170.168 28.7197 171.021 29.1422L171.909 27.35ZM173.799 27.7734C173.096 27.7734 172.471 27.6286 171.909 27.35L171.021 29.1422C171.878 29.5667 172.809 29.7734 173.799 29.7734V27.7734ZM176.931 26.4441C176.056 27.3408 175.03 27.7734 173.799 27.7734V29.7734C175.575 29.7734 177.115 29.1189 178.362 27.8411L176.931 26.4441ZM178.248 23.1582C178.248 24.4661 177.812 25.5417 176.931 26.444L178.362 27.8411C179.617 26.556 180.248 24.9753 180.248 23.1582H178.248ZM176.925 19.9353C177.814 20.8351 178.248 21.8911 178.248 23.1582H180.248C180.248 21.3654 179.607 19.8042 178.348 18.5296L176.925 19.9353ZM173.76 18.6016C174.999 18.6016 176.036 19.0356 176.925 19.9353L178.348 18.5296C177.089 17.2547 175.541 16.6016 173.76 16.6016V18.6016ZM171.873 19.0426C172.42 18.7541 173.042 18.6016 173.76 18.6016V16.6016C172.746 16.6016 171.799 16.8202 170.939 17.2738L171.873 19.0426ZM170.349 20.4167C170.814 19.7788 171.324 19.3322 171.873 19.0426L170.939 17.2738C170.082 17.7264 169.349 18.3931 168.733 19.2395L170.349 20.4167ZM168.541 17.875V19.8281H170.541V17.875H168.541ZM173.652 17.9199C172.206 17.9199 170.948 18.4363 169.942 19.4587L171.367 20.8616C171.988 20.2303 172.729 19.9199 173.652 19.9199V17.9199ZM176.267 18.6235C175.466 18.1542 174.588 17.9199 173.652 17.9199V19.9199C174.24 19.9199 174.768 20.0632 175.256 20.3492L176.267 18.6235ZM178.168 20.5715C177.706 19.7434 177.069 19.085 176.261 18.6197L175.263 20.353C175.744 20.6298 176.128 21.0196 176.422 21.5457L178.168 20.5715ZM178.871 23.207C178.871 22.2734 178.631 21.3879 178.165 20.5652L176.425 21.552C176.727 22.0835 176.871 22.6303 176.871 23.207H178.871ZM178.167 25.8453C178.631 25.0195 178.871 24.1356 178.871 23.207H176.871C176.871 23.7759 176.727 24.3242 176.423 24.8656L178.167 25.8453ZM176.25 27.8183C177.059 27.3412 177.7 26.6766 178.167 25.8453L176.423 24.8656C176.122 25.4015 175.727 25.8047 175.234 26.0958L176.25 27.8183ZM173.672 28.5234C174.588 28.5234 175.452 28.2858 176.248 27.8199L175.237 26.0942C174.743 26.3834 174.227 26.5234 173.672 26.5234V28.5234ZM171.046 27.8304C171.867 28.288 172.746 28.5234 173.672 28.5234V26.5234C173.1 26.5234 172.554 26.3813 172.02 26.0837L171.046 27.8304ZM169.11 25.9162C169.568 26.7257 170.22 27.3651 171.043 27.8284L172.024 26.0857C171.505 25.7938 171.122 25.4111 170.851 24.9315L169.11 25.9162ZM168.443 23.2461C168.443 24.2068 168.658 25.1026 169.106 25.9095L170.855 24.9382C170.587 24.456 170.443 23.9 170.443 23.2461H168.443ZM169.939 19.4615C168.936 20.4881 168.443 21.7732 168.443 23.2461H170.443C170.443 22.258 170.758 21.4858 171.37 20.8588L169.939 19.4615ZM186.846 18.6016C188.205 18.6016 189.287 19.0799 190.167 20.0506L191.649 18.7072C190.381 17.3081 188.755 16.6016 186.846 16.6016V18.6016ZM183.516 20.0583C184.396 19.0826 185.481 18.6016 186.846 18.6016V16.6016C184.929 16.6016 183.299 17.3119 182.031 18.719L183.516 20.0583ZM182.309 23.2168C182.309 21.9904 182.707 20.954 183.515 20.0591L182.031 18.7182C180.887 19.9848 180.309 21.5005 180.309 23.2168H182.309ZM183.586 26.4346C182.724 25.5018 182.309 24.4438 182.309 23.2168H180.309C180.309 24.9586 180.922 26.4982 182.117 27.7919L183.586 26.4346ZM186.846 27.7734C185.472 27.7734 184.413 27.3187 183.582 26.4302L182.121 27.7964C183.361 29.1215 184.964 29.7734 186.846 29.7734V27.7734ZM190.088 26.4325C189.263 27.3197 188.212 27.7734 186.846 27.7734V29.7734C188.722 29.7734 190.32 29.1204 191.553 27.7941L190.088 26.4325ZM191.373 23.2168C191.373 24.4419 190.956 25.4991 190.088 26.4323L191.553 27.7942C192.755 26.5009 193.373 24.9605 193.373 23.2168H191.373ZM190.166 20.0494C190.974 20.9433 191.373 21.9827 191.373 23.2168H193.373C193.373 21.4952 192.795 19.9759 191.65 18.7085L190.166 20.0494ZM186.846 17.9395C185.433 17.9395 184.203 18.4762 183.208 19.5033L184.644 20.8951C185.276 20.2426 185.993 19.9395 186.846 19.9395V17.9395ZM190.474 19.5033C189.48 18.4775 188.254 17.9395 186.846 17.9395V19.9395C187.69 19.9395 188.404 20.2413 189.038 20.8951L190.474 19.5033ZM191.986 23.2461C191.986 21.7979 191.477 20.5302 190.471 19.5005L189.04 20.898C189.675 21.5479 189.986 22.3115 189.986 23.2461H191.986ZM191.303 25.8824C191.758 25.0677 191.986 24.1833 191.986 23.2461H189.986C189.986 23.8453 189.844 24.3933 189.557 24.9067L191.303 25.8824ZM189.426 27.8035C190.22 27.3448 190.848 26.6967 191.303 25.8824L189.557 24.9067C189.27 25.4205 188.894 25.801 188.426 26.0715L189.426 27.8035ZM186.846 28.4746C187.767 28.4746 188.631 28.2543 189.419 27.8074L188.433 26.0676C187.958 26.3369 187.435 26.4746 186.846 26.4746V28.4746ZM184.272 27.8074C185.06 28.2543 185.925 28.4746 186.846 28.4746V26.4746C186.256 26.4746 185.734 26.3369 185.259 26.0676L184.272 27.8074ZM182.389 25.8824C182.844 26.6967 183.471 27.3448 184.266 27.8035L185.266 26.0715C184.797 25.801 184.422 25.4205 184.135 24.9067L182.389 25.8824ZM181.705 23.2461C181.705 24.1833 181.934 25.0677 182.389 25.8824L184.135 24.9067C183.848 24.3933 183.705 23.8453 183.705 23.2461H181.705ZM183.208 19.5033C182.209 20.5336 181.705 21.8004 181.705 23.2461H183.705C183.705 22.309 184.015 21.5445 184.644 20.8951L183.208 19.5033ZM203.916 27.5H202.461V29.5H203.916V27.5ZM198.115 18.2933L203.008 28.9183L204.824 28.0817L199.932 17.4567L198.115 18.2933ZM198.779 18.875H199.023V16.875H198.779V18.875ZM194.825 28.9162L199.689 18.2912L197.87 17.4588L193.007 28.0838L194.825 28.9162ZM195.381 27.5H193.916V29.5H195.381V27.5ZM197.996 20.3509L194.471 28.0852L196.291 28.9148L199.816 21.1804L197.996 20.3509ZM203.37 28.0824L199.815 20.348L197.998 21.1832L201.552 28.9176L203.37 28.0824ZM214.496 25.8599L215.648 26.4653L216.578 24.6948L215.426 24.0894L214.496 25.8599ZM214.456 27.2417C214.93 26.8283 215.381 26.2204 215.819 25.4879L214.103 24.4613C213.708 25.122 213.384 25.5233 213.141 25.7349L214.456 27.2417ZM212.835 28.179C213.447 27.9544 213.993 27.6459 214.456 27.2417L213.141 25.7349C212.888 25.9557 212.562 26.1485 212.146 26.3015L212.835 28.179ZM210.918 28.5234C211.578 28.5234 212.22 28.4077 212.839 28.1775L212.142 26.3029C211.745 26.4504 211.339 26.5234 210.918 26.5234V28.5234ZM207.377 27.0369C208.332 28.0243 209.534 28.5234 210.918 28.5234V26.5234C210.063 26.5234 209.383 26.2348 208.815 25.6467L207.377 27.0369ZM205.914 23.316C205.945 24.77 206.417 26.0359 207.374 27.034L208.817 25.6496C208.251 25.0592 207.935 24.2938 207.914 23.2739L205.914 23.316ZM216.465 22.2949H206.914V24.2949H216.465V22.2949ZM214.509 20.2829C215.116 21.0497 215.454 22.0343 215.465 23.3039L217.465 23.286C217.45 21.6519 217.006 20.2146 216.077 19.0413L214.509 20.2829ZM210.957 18.6016C212.473 18.6016 213.624 19.1575 214.507 20.2804L216.079 19.0438C214.801 17.4193 213.061 16.6016 210.957 16.6016V18.6016ZM207.536 20.2291C208.388 19.1395 209.495 18.6016 210.957 18.6016V16.6016C208.903 16.6016 207.205 17.4048 205.96 18.9975L207.536 20.2291ZM206.508 23.2168C206.508 22.0915 206.847 21.1078 207.535 20.2302L205.961 18.9963C204.995 20.2281 204.508 21.6468 204.508 23.2168H206.508ZM207.732 26.4234C206.903 25.4559 206.508 24.3983 206.508 23.2168H204.508C204.508 24.8999 205.09 26.4138 206.213 27.725L207.732 26.4234ZM211.035 27.7734C209.543 27.7734 208.486 27.2979 207.73 26.4213L206.215 27.7272C207.413 29.1162 209.063 29.7734 211.035 29.7734V27.7734ZM212.78 27.4868C212.294 27.6712 211.717 27.7734 211.035 27.7734V29.7734C211.916 29.7734 212.739 29.6413 213.489 29.357L212.78 27.4868ZM214.127 26.6414C213.723 27.0138 213.273 27.295 212.772 27.4901L213.498 29.3537C214.234 29.0669 214.897 28.6515 215.482 28.1125L214.127 26.6414ZM215.222 25.1266C214.886 25.7871 214.516 26.2829 214.127 26.6414L215.482 28.1125C216.082 27.5596 216.585 26.8574 217.005 26.0335L215.222 25.1266ZM215.931 21.8707C215.725 21.0465 215.407 20.3185 214.939 19.7377L213.382 20.9928C213.617 21.2844 213.832 21.7217 213.991 22.3558L215.931 21.8707ZM207.051 23.1133H214.961V21.1133H207.051V23.1133ZM207.625 19.1701C206.893 19.8238 206.402 20.7469 206.09 21.8377L208.012 22.3889C208.259 21.5265 208.595 20.9848 208.957 20.662L207.625 19.1701ZM210.977 17.9102C209.699 17.9102 208.563 18.3298 207.624 19.1711L208.958 20.6609C209.516 20.1611 210.171 19.9102 210.977 19.9102V17.9102ZM213.206 18.4041C212.5 18.0756 211.754 17.9102 210.977 17.9102V19.9102C211.462 19.9102 211.92 20.0116 212.361 20.217L213.206 18.4041ZM214.944 19.7448C214.49 19.1706 213.9 18.7278 213.206 18.4041L212.361 20.217C212.812 20.4271 213.14 20.6874 213.376 20.9856L214.944 19.7448ZM222.109 27.5H219.023V29.5H222.109V27.5ZM224.977 25.5703C224.977 26.3066 224.748 26.7113 224.406 26.9705C224.011 27.2694 223.301 27.5 222.109 27.5V29.5C223.496 29.5 224.719 29.2423 225.614 28.5647C226.561 27.8473 226.977 26.7871 226.977 25.5703H224.977ZM223.573 23.6908C224.122 23.8851 224.453 24.1398 224.653 24.4113C224.849 24.6788 224.977 25.044 224.977 25.5703H226.977C226.977 24.7034 226.759 23.9016 226.265 23.2283C225.774 22.5591 225.071 22.0993 224.24 21.8053L223.573 23.6908ZM224.332 20.5508C224.332 20.944 224.247 21.1969 224.137 21.3663C224.029 21.5318 223.851 21.692 223.532 21.8209L224.281 23.6752C224.912 23.42 225.447 23.0219 225.814 22.455C226.18 21.892 226.332 21.2383 226.332 20.5508H224.332ZM223.84 19.3696C224.182 19.7244 224.332 20.1033 224.332 20.5508H226.332C226.332 19.566 225.968 18.6949 225.281 17.982L223.84 19.3696ZM222.061 18.875C223.099 18.875 223.601 19.1184 223.836 19.365L225.285 17.9866C224.504 17.1654 223.34 16.875 222.061 16.875V18.875ZM219.023 18.875H222.061V16.875H219.023V18.875ZM220.023 28.5V17.875H218.023V28.5H220.023ZM219.4 19.0566V22.377H221.4V19.0566H219.4ZM221.289 18.0566H220.4V20.0566H221.289V18.0566ZM223.038 18.1562C222.671 18.0789 222.05 18.0566 221.289 18.0566V20.0566C222.091 20.0566 222.498 20.0864 222.626 20.1133L223.038 18.1562ZM224.351 19.0566C224.041 18.6499 223.611 18.2738 223.033 18.1552L222.631 20.1144C222.598 20.1076 222.592 20.0973 222.614 20.1135C222.639 20.1316 222.689 20.1758 222.759 20.2676L224.351 19.0566ZM224.896 20.7754C224.896 20.1539 224.733 19.5595 224.351 19.0566L222.759 20.2676C222.832 20.3637 222.896 20.5114 222.896 20.7754H224.896ZM224.326 22.4484C224.735 21.9672 224.896 21.3774 224.896 20.7754H222.896C222.896 21.0198 222.836 21.1136 222.803 21.1531L224.326 22.4484ZM223.126 23.2464C223.624 23.1153 224.02 22.8106 224.328 22.4467L222.801 21.1548C222.741 21.2264 222.693 21.2664 222.662 21.2878C222.632 21.3082 222.618 21.3119 222.617 21.3122L223.126 23.2464ZM221.289 23.377C222.069 23.377 222.731 23.3503 223.126 23.2464L222.617 21.3122C222.617 21.3121 222.608 21.3143 222.589 21.3179C222.569 21.3214 222.543 21.3255 222.508 21.3299C222.438 21.3387 222.346 21.3472 222.228 21.3544C221.993 21.369 221.682 21.377 221.289 21.377V23.377ZM220.4 23.377H221.289V21.377H220.4V23.377ZM219.4 23.627V27.3477H221.4V23.627H219.4ZM222.432 22.627H220.4V24.627H222.432V22.627ZM224.564 23.4182C223.979 22.8644 223.234 22.627 222.432 22.627V24.627C222.827 24.627 223.046 24.7346 223.19 24.8708L224.564 23.4182ZM225.424 25.5312C225.424 24.7234 225.16 23.9818 224.564 23.4182L223.19 24.8708C223.323 24.9974 223.424 25.1803 223.424 25.5312H225.424ZM224.908 27.2359C225.276 26.7343 225.424 26.1421 225.424 25.5312H223.424C223.424 25.8189 223.357 25.9688 223.295 26.0532L224.908 27.2359ZM223.631 28.1774C224.173 28.0125 224.6 27.6692 224.917 27.224L223.287 26.065C223.187 26.2058 223.106 26.2466 223.049 26.264L223.631 28.1774ZM221.865 28.3477C222.561 28.3477 223.177 28.3086 223.617 28.1814L223.062 26.26C222.917 26.3021 222.549 26.3477 221.865 26.3477V28.3477ZM220.4 28.3477H221.865V26.3477H220.4V28.3477ZM238.163 19.2327L237.079 19.9066L238.135 21.6051L239.219 20.9313L238.163 19.2327ZM236.926 19.5609C237.27 19.8219 237.574 20.1616 237.833 20.595L239.55 19.5691C239.171 18.9347 238.7 18.3956 238.133 17.9664L236.926 19.5609ZM235.549 18.8744C236.122 19.0618 236.575 19.2953 236.926 19.5609L238.133 17.9664C237.572 17.542 236.912 17.2156 236.17 16.9733L235.549 18.8744ZM233.828 18.6016C234.428 18.6016 234.999 18.6928 235.546 18.8735L236.173 16.9742C235.418 16.7251 234.635 16.6016 233.828 16.6016V18.6016ZM231.271 19.2212C232.016 18.8136 232.861 18.6016 233.828 18.6016V16.6016C232.555 16.6016 231.376 16.8843 230.311 17.4663L231.271 19.2212ZM229.514 20.9211C229.943 20.192 230.524 19.6297 231.271 19.2212L230.311 17.4663C229.248 18.0474 228.403 18.8652 227.79 19.907L229.514 20.9211ZM228.881 23.2754C228.881 22.4224 229.092 21.6432 229.515 20.9191L227.789 19.909C227.184 20.9427 226.881 22.0711 226.881 23.2754H228.881ZM230.235 26.4522C229.323 25.5718 228.881 24.5323 228.881 23.2754H226.881C226.881 25.0784 227.546 26.6365 228.847 27.8916L230.235 26.4522ZM233.721 27.7734C232.274 27.7734 231.138 27.3227 230.235 26.4522L228.847 27.8916C230.158 29.1565 231.808 29.7734 233.721 29.7734V27.7734ZM236.202 27.2499C235.505 27.5903 234.685 27.7734 233.721 27.7734V29.7734C234.943 29.7734 236.071 29.5399 237.08 29.0469L236.202 27.2499ZM237.859 25.8164C237.454 26.4247 236.908 26.9022 236.199 27.2513L237.082 29.0456C238.092 28.5484 238.913 27.8409 239.523 26.9258L237.859 25.8164ZM237.058 26.4937L238.142 27.2066L239.241 25.5356L238.157 24.8227L237.058 26.4937ZM233.779 28.5234C235.652 28.5234 237.214 27.758 238.39 26.2809L236.825 25.0355C236.021 26.0453 235.031 26.5234 233.779 26.5234V28.5234ZM230.985 27.8343C231.834 28.2991 232.773 28.5234 233.779 28.5234V26.5234C233.08 26.5234 232.476 26.3702 231.945 26.0798L230.985 27.8343ZM228.979 25.8676C229.466 26.7057 230.137 27.3661 230.981 27.8324L231.948 26.0817C231.425 25.7928 231.016 25.392 230.708 24.8629L228.979 25.8676ZM228.258 23.1777C228.258 24.1294 228.5 25.0293 228.976 25.8614L230.712 24.8691C230.406 24.334 230.258 23.7755 230.258 23.1777H228.258ZM229.838 19.4254C228.793 20.4467 228.258 21.7168 228.258 23.1777H230.258C230.258 22.2558 230.576 21.5012 231.236 20.8559L229.838 19.4254ZM233.77 17.8906C232.238 17.8906 230.903 18.3928 229.841 19.4227L231.233 20.8585C231.89 20.2218 232.71 19.8906 233.77 19.8906V17.8906ZM238.406 20.1539C237.271 18.648 235.689 17.8906 233.77 17.8906V19.8906C235.092 19.8906 236.069 20.3768 236.809 21.3579L238.406 20.1539ZM240.137 18.875H247.129V16.875H240.137V18.875ZM241.137 19.0566V17.875H239.137V19.0566H241.137ZM242.939 18.0566H240.137V20.0566H242.939V18.0566ZM243.939 28.5V19.0566H241.939V28.5H243.939ZM244.316 27.5H242.939V29.5H244.316V27.5ZM243.316 19.0566V28.5H245.316V19.0566H243.316ZM247.129 18.0566H244.316V20.0566H247.129V18.0566ZM246.129 17.875V19.0566H248.129V17.875H246.129ZM252.07 27.5H248.984V29.5H252.07V27.5ZM254.938 25.5703C254.938 26.3066 254.709 26.7113 254.367 26.9705C253.972 27.2694 253.262 27.5 252.07 27.5V29.5C253.457 29.5 254.68 29.2423 255.575 28.5647C256.521 27.8473 256.938 26.7871 256.938 25.5703H254.938ZM253.534 23.6908C254.083 23.8851 254.414 24.1398 254.614 24.4113C254.81 24.6788 254.938 25.044 254.938 25.5703H256.938C256.938 24.7034 256.72 23.9016 256.226 23.2283C255.735 22.5591 255.032 22.0993 254.201 21.8053L253.534 23.6908ZM254.293 20.5508C254.293 20.944 254.208 21.1969 254.098 21.3663C253.99 21.5318 253.811 21.692 253.493 21.8209L254.242 23.6752C254.873 23.42 255.408 23.0219 255.775 22.455C256.141 21.892 256.293 21.2383 256.293 20.5508H254.293ZM253.801 19.3696C254.143 19.7244 254.293 20.1033 254.293 20.5508H256.293C256.293 19.566 255.929 18.6949 255.242 17.982L253.801 19.3696ZM252.021 18.875C253.06 18.875 253.562 19.1184 253.797 19.365L255.246 17.9866C254.465 17.1654 253.301 16.875 252.021 16.875V18.875ZM248.984 18.875H252.021V16.875H248.984V18.875ZM249.984 28.5V17.875H247.984V28.5H249.984ZM249.361 19.0566V22.377H251.361V19.0566H249.361ZM251.25 18.0566H250.361V20.0566H251.25V18.0566ZM252.999 18.1562C252.632 18.0789 252.011 18.0566 251.25 18.0566V20.0566C252.051 20.0566 252.459 20.0864 252.587 20.1133L252.999 18.1562ZM254.311 19.0566C254.002 18.6499 253.572 18.2738 252.994 18.1552L252.592 20.1144C252.559 20.1076 252.553 20.0973 252.575 20.1135C252.599 20.1316 252.65 20.1758 252.72 20.2676L254.311 19.0566ZM254.857 20.7754C254.857 20.1539 254.694 19.5595 254.311 19.0566L252.72 20.2676C252.793 20.3637 252.857 20.5114 252.857 20.7754H254.857ZM254.287 22.4484C254.696 21.9672 254.857 21.3774 254.857 20.7754H252.857C252.857 21.0198 252.797 21.1136 252.763 21.1531L254.287 22.4484ZM253.087 23.2464C253.584 23.1153 253.981 22.8106 254.289 22.4467L252.762 21.1548C252.701 21.2264 252.654 21.2664 252.623 21.2878C252.593 21.3082 252.579 21.3119 252.578 21.3122L253.087 23.2464ZM251.25 23.377C252.03 23.377 252.692 23.3503 253.087 23.2464L252.578 21.3122C252.578 21.3121 252.569 21.3143 252.549 21.3179C252.53 21.3214 252.504 21.3255 252.469 21.3299C252.399 21.3387 252.307 21.3472 252.189 21.3544C251.954 21.369 251.643 21.377 251.25 21.377V23.377ZM250.361 23.377H251.25V21.377H250.361V23.377ZM249.361 23.627V27.3477H251.361V23.627H249.361ZM252.393 22.627H250.361V24.627H252.393V22.627ZM254.525 23.4182C253.94 22.8644 253.195 22.627 252.393 22.627V24.627C252.788 24.627 253.007 24.7346 253.151 24.8708L254.525 23.4182ZM255.385 25.5312C255.385 24.7234 255.121 23.9818 254.525 23.4182L253.151 24.8708C253.284 24.9974 253.385 25.1803 253.385 25.5312H255.385ZM254.869 27.2359C255.237 26.7343 255.385 26.1421 255.385 25.5312H253.385C253.385 25.8189 253.318 25.9688 253.256 26.0532L254.869 27.2359ZM253.592 28.1774C254.134 28.0125 254.561 27.6692 254.877 27.224L253.248 26.065C253.147 26.2058 253.067 26.2466 253.01 26.264L253.592 28.1774ZM251.826 28.3477C252.522 28.3477 253.138 28.3086 253.578 28.1814L253.023 26.26C252.878 26.3021 252.51 26.3477 251.826 26.3477V28.3477ZM250.361 28.3477H251.826V26.3477H250.361V28.3477ZM267.926 17.875V28.5H269.926V17.875H267.926ZM267.578 18.875H268.926V16.875H267.578V18.875ZM268.578 19.8281V17.875H266.578V19.8281H268.578ZM265.249 19.0443C265.803 19.3336 266.311 19.7784 266.766 20.412L268.39 19.2442C267.778 18.3935 267.042 17.725 266.176 17.2721L265.249 19.0443ZM263.35 18.6016C264.075 18.6016 264.701 18.7546 265.246 19.0426L266.18 17.2738C265.319 16.8196 264.369 16.6016 263.35 16.6016V18.6016ZM260.184 19.9353C261.073 19.0356 262.11 18.6016 263.35 18.6016V16.6016C261.568 16.6016 260.021 17.2547 258.761 18.5296L260.184 19.9353ZM258.861 23.1582C258.861 21.8911 259.295 20.8351 260.184 19.9353L258.761 18.5296C257.502 19.8042 256.861 21.3654 256.861 23.1582H258.861ZM260.171 26.4462C259.296 25.5443 258.861 24.468 258.861 23.1582H256.861C256.861 24.9734 257.488 26.5534 258.735 27.8389L260.171 26.4462ZM263.311 27.7734C262.079 27.7734 261.049 27.3405 260.167 26.4419L258.74 27.8433C259.993 29.1191 261.534 29.7734 263.311 29.7734V27.7734ZM265.201 27.35C264.638 27.6286 264.014 27.7734 263.311 27.7734V29.7734C264.3 29.7734 265.231 29.5667 266.088 29.1422L265.201 27.35ZM266.806 26.0386C266.312 26.6395 265.776 27.0674 265.204 27.3484L266.085 29.1438C266.945 28.7216 267.699 28.1014 268.35 27.309L266.806 26.0386ZM268.578 28.5V26.6738H266.578V28.5H268.578ZM268.926 27.5H267.578V29.5H268.926V27.5ZM263.457 17.9199C262.521 17.9199 261.643 18.1542 260.842 18.6235L261.853 20.3492C262.341 20.0632 262.869 19.9199 263.457 19.9199V17.9199ZM267.161 19.4616C266.16 18.4366 264.904 17.9199 263.457 17.9199V19.9199C264.38 19.9199 265.116 20.2301 265.73 20.8588L267.161 19.4616ZM268.666 23.2461C268.666 21.7708 268.168 20.4848 267.158 19.4587L265.733 20.8616C266.35 21.4892 266.666 22.2605 266.666 23.2461H268.666ZM267.99 25.9162C268.447 25.1081 268.666 24.2099 268.666 23.2461H266.666C266.666 23.8968 266.521 24.4505 266.249 24.9315L267.99 25.9162ZM266.067 27.8284C266.891 27.3643 267.541 26.7228 267.993 25.9095L266.245 24.9382C265.981 25.4139 265.602 25.7946 265.086 26.0857L266.067 27.8284ZM263.447 28.5234C264.373 28.5234 265.251 28.2879 266.067 27.8284L265.086 26.0857C264.56 26.3814 264.019 26.5234 263.447 26.5234V28.5234ZM260.856 27.8221C261.657 28.2868 262.526 28.5234 263.447 28.5234V26.5234C262.884 26.5234 262.36 26.3825 261.859 26.092L260.856 27.8221ZM258.943 25.8453C259.408 26.6742 260.044 27.3383 260.845 27.8161L261.869 26.098C261.382 25.8075 260.989 25.404 260.686 24.8656L258.943 25.8453ZM258.238 23.207C258.238 24.1355 258.479 25.0195 258.943 25.8453L260.686 24.8656C260.382 24.3242 260.238 23.7759 260.238 23.207H258.238ZM258.931 20.5715C258.473 21.3934 258.238 22.2767 258.238 23.207H260.238C260.238 22.627 260.381 22.078 260.678 21.5457L258.931 20.5715ZM260.849 18.6197C260.042 19.0841 259.403 19.7404 258.935 20.5651L260.674 21.552C260.975 21.0226 261.364 20.6307 261.847 20.353L260.849 18.6197Z" fill="black" mask="url(#path-1-inside-1_286_320)"/>
</svg>
